<svg width="20" height="22" viewBox="0 0 20 22" fill="none" xmlns="http://www.w3.org/2000/svg">
<path d="M5 1H15" stroke="black" stroke-width="1.5" stroke-linecap="round"/>
<path d="M9.52734 5.02734L3.12305 12.4062C3.07422 12.4629 3.04688 12.5352 3.04688 12.6113V14.3398C3.04688 14.4844 3.22656 14.5508 3.32031 14.4414L9.25781 7.60156V19.0312C9.25781 19.1172 9.32813 19.1875 9.41406 19.1875H10.5859C10.6719 19.1875 10.7422 19.1172 10.7422 19.0312V7.60352L16.6797 14.4434C16.7754 14.5527 16.9531 14.4863 16.9531 14.3418V12.5547C16.9531 12.5176 16.9395 12.4805 16.9141 12.4531L10.4727 5.02734C10.4139 4.95973 10.3412 4.90552 10.2597 4.86837C10.1782 4.83121 10.0896 4.81199 10 4.81199C9.9104 4.81199 9.82184 4.83121 9.7403 4.86837C9.65876 4.90552 9.58614 4.95973 9.52734 5.02734Z" fill="black"/>
</svg>
