<svg xmlns="http://www.w3.org/2000/svg" width="60" height="60" viewBox="0 0 60 60" fill="none">
  <path d="M44.8652 28.5239L18.4512 7.89304C18.3822 7.8387 18.2992 7.80493 18.2119 7.79561C18.1245 7.78628 18.0363 7.80179 17.9574 7.84034C17.8784 7.87889 17.812 7.93892 17.7656 8.01354C17.7193 8.08815 17.6949 8.17433 17.6953 8.26218V12.7915C17.6953 13.0786 17.8301 13.354 18.0527 13.5298L39.1465 30.0005L18.0527 46.4712C17.8242 46.6469 17.6953 46.9223 17.6953 47.2094V51.7387C17.6953 52.1313 18.1465 52.3481 18.4512 52.1079L44.8652 31.477C45.0897 31.3019 45.2714 31.0779 45.3963 30.822C45.5212 30.5662 45.5861 30.2852 45.5861 30.0005C45.5861 29.7157 45.5212 29.4348 45.3963 29.1789C45.2714 28.923 45.0897 28.699 44.8652 28.5239Z" fill="white"/>
</svg>