<svg xmlns="http://www.w3.org/2000/svg" width="60" height="60" viewBox="0 0 60 60" fill="none">
  <path d="M42.422 12.792V8.26267C42.422 7.87009 41.9708 7.65329 41.6661 7.89353L15.252 28.5244C15.0276 28.6989 14.846 28.9224 14.7211 29.1778C14.5962 29.4332 14.5312 29.7137 14.5312 29.998C14.5312 30.2823 14.5962 30.5629 14.7211 30.8183C14.846 31.0736 15.0276 31.2971 15.252 31.4717L41.6661 52.1025C41.9767 52.3428 42.422 52.126 42.422 51.7334V47.2041C42.422 46.917 42.2872 46.6416 42.0645 46.4658L20.9708 30.0009L42.0645 13.5302C42.2872 13.3545 42.422 13.0791 42.422 12.792Z" fill="white"/>
</svg>