<svg xmlns="http://www.w3.org/2000/svg" width="35" height="28" viewBox="0 0 35 28" fill="none">
  <path d="M18.3601 20.937L30.3948 8.61046C30.4265 8.57825 30.4461 8.53954 30.4516 8.49878C30.457 8.45801 30.448 8.41685 30.4255 8.38002C30.403 8.34318 30.368 8.31216 30.3245 8.29053C30.2809 8.2689 30.2307 8.25753 30.1794 8.25772H27.5373C27.3699 8.25772 27.2092 8.32061 27.1067 8.42452L17.4988 18.2683L7.89085 8.42452C7.78831 8.31788 7.62766 8.25772 7.46018 8.25772H4.81809C4.58909 8.25772 4.46262 8.46827 4.60276 8.61046L16.6374 20.937C16.7396 21.0418 16.8703 21.1265 17.0195 21.1848C17.1688 21.2431 17.3327 21.2734 17.4988 21.2734C17.6648 21.2734 17.8288 21.2431 17.978 21.1848C18.1273 21.1265 18.2579 21.0418 18.3601 20.937Z" fill="#8F8F8F"/>
</svg>