<svg xmlns="http://www.w3.org/2000/svg" width="35" height="28" viewBox="0 0 35 28" fill="none">
  <path d="M16.6399 7.06295L4.60525 19.3895C4.57355 19.4217 4.55385 19.4604 4.54841 19.5012C4.54298 19.542 4.55202 19.5831 4.57451 19.62C4.59699 19.6568 4.63201 19.6878 4.67554 19.7094C4.71907 19.7311 4.76934 19.7424 4.82058 19.7422H7.46267C7.63015 19.7422 7.79079 19.6794 7.89333 19.5754L17.5012 9.7317L27.1092 19.5754C27.2117 19.6821 27.3723 19.7422 27.5398 19.7422H30.1819C30.4109 19.7422 30.5374 19.5317 30.3972 19.3895L18.3626 7.06295C18.2604 6.95818 18.1297 6.87343 17.9805 6.81513C17.8312 6.75684 17.6673 6.72654 17.5012 6.72654C17.3352 6.72654 17.1712 6.75684 17.022 6.81513C16.8727 6.87343 16.7421 6.95818 16.6399 7.06295Z" fill="#8F8F8F"/>
</svg>