<svg xmlns="http://www.w3.org/2000/svg" width="26" height="27" viewBox="0 0 26 27" fill="none">
  <g clip-path="url(#clip0_2136_120)">
    <path d="M17.6367 7.41197C21.2333 7.41197 22.2083 8.42844 22.2083 12.1767C22.2083 12.3461 22.23 12.4943 22.295 12.6637L24.375 19.059C24.245 22.5743 21.2767 25.412 17.6367 25.412H8.36333C4.72333 25.412 1.755 22.5743 1.625 19.059L3.705 12.6637C3.74833 12.5155 3.79167 12.3461 3.79167 12.1767C3.79167 8.42844 4.76667 7.41197 8.36333 7.41197H17.6367ZM17.6367 5.82373H8.36333C3.74833 5.82373 2.16667 7.66608 2.16667 12.1767L0 18.8261C0 23.3367 3.74833 27.0002 8.36333 27.0002H17.6367C22.2517 27.0002 26 23.3367 26 18.8261L23.8333 12.1767C23.8333 7.66608 22.2517 5.82373 17.6367 5.82373Z" fill="black"/>
    <path d="M9.75 11.1178C9.75 11.1178 9.75 2.09658 13 1.60952C16.25 1.12247 16.0983 11.1178 16.0983 11.1178" stroke="black" stroke-width="1.5" stroke-linecap="round" stroke-linejoin="round"/>
  </g>
  <defs>
    <clipPath id="clip0_2136_120">
      <rect width="26" height="27" fill="white"/>
    </clipPath>
  </defs>
</svg>