<svg width="108" height="28" viewBox="0 0 108 28" fill="none" xmlns="http://www.w3.org/2000/svg">
<path d="M0 25.5191V21.841H10.6726V15.6156H1.70085V11.9375H5.38035V3.69316H1.70085V0.0151367H23.4391V3.69316H19.7596V11.9375H23.4391V15.6156H14.4673V21.841H25.1399V25.5191H0.00678288H0ZM9.16828 11.9375H15.9581V3.69316H9.16828V11.9375Z" fill="#F2F2F2" fill-opacity="0.9"/>
<path d="M29.9985 11.7829V3.16413C29.9985 2.75301 30.073 2.36392 30.2289 1.98217C30.378 1.60776 30.588 1.27005 30.8387 0.969056C31.0962 0.675401 31.4012 0.440483 31.7671 0.26429C32.1262 0.0880969 32.5193 0 32.9394 0H51.8248V3.67802H34.2743C34.0642 3.67802 33.9355 3.72942 33.8813 3.8322C33.8271 3.93498 33.7932 4.06712 33.7932 4.22863V10.7257C33.7932 10.9093 33.8203 11.0488 33.8745 11.1369C33.9287 11.2323 34.0642 11.2764 34.2675 11.2764H51.7909V14.9544H42.765V21.1799H52.9835V24.8579H28.7584V21.1799H38.977V14.9544H32.9191C32.5057 14.9544 32.1194 14.8736 31.7603 14.7121C31.4012 14.5506 31.0962 14.3157 30.8387 14.022C30.5812 13.7284 30.378 13.3833 30.2289 12.9942C30.0798 12.6051 30.0053 12.194 30.0053 11.7682L29.9985 11.7829Z" fill="#F2F2F2" fill-opacity="0.9"/>
<path d="M74.9115 13.2512V0.00733734H78.7062V4.91138H82.6974V8.58941H78.7062V13.8605H75.7924C76.6056 14.5579 77.2425 15.4095 77.7169 16.4227C78.1912 17.4358 78.4216 18.581 78.4216 19.8731C78.4216 21.0404 78.2251 22.1196 77.8253 23.1253C77.4255 24.1311 76.8631 24.9974 76.1244 25.7315C75.3723 26.4657 74.5049 27.0309 73.5359 27.42C72.5669 27.8091 71.4827 28 70.2969 28C69.111 28 68.02 27.8018 67.0443 27.42C66.0617 27.0309 65.1943 26.473 64.4422 25.7315C63.7239 24.9974 63.1683 24.1238 62.7752 23.1253C62.3822 22.1269 62.1789 21.0404 62.1789 19.8731C62.1789 17.7661 62.8023 16.0189 64.0492 14.6314C64.6319 13.9339 65.3366 13.376 66.1566 12.9575C66.9765 12.5391 67.8981 12.2454 68.9145 12.0839C67.9523 11.6728 67.0917 11.1148 66.3395 10.3954C65.5874 9.68328 64.9843 8.73623 64.5303 7.57629C63.7171 9.39695 62.6058 10.7257 61.1896 11.5627C59.753 12.3629 58.1335 12.8841 56.3242 13.1264V9.29418C57.2322 9.1547 58.0522 8.8904 58.7976 8.50865C59.543 8.13424 60.2003 7.5763 60.7627 6.83482C61.3319 6.15941 61.7791 5.30047 62.1044 4.258C62.4364 3.21552 62.599 1.93078 62.599 0.396429V0H66.3937V0.396429C66.3937 1.93078 66.5564 3.21552 66.8749 4.258C67.1933 5.30047 67.6406 6.15941 68.203 6.83482C68.7722 7.56895 69.4295 8.1269 70.1817 8.50865C70.9338 8.8904 71.7673 9.14735 72.6753 9.29418V12.2968C73.0684 12.4216 73.4614 12.5611 73.8476 12.7079C74.2339 12.8621 74.5862 13.0383 74.9115 13.2438V13.2512ZM70.3036 15.3068C69.0026 15.3068 67.9658 15.7252 67.2069 16.5621C66.4479 17.3991 66.0617 18.5076 66.0617 19.8731C66.0617 21.2386 66.4412 22.3985 67.2069 23.2134C67.9726 24.0283 69.0026 24.4394 70.3036 24.4394C71.6047 24.4394 72.594 24.0283 73.3733 23.2134C74.1593 22.3985 74.5456 21.2826 74.5456 19.8731C74.5456 18.4636 74.1526 17.3991 73.3733 16.5621C72.5872 15.7252 71.564 15.3068 70.3036 15.3068Z" fill="#F2F2F2" fill-opacity="0.9"/>
<path d="M85.2996 3.6856V0.00756836H99.34V3.6856H94.3052C94.7389 7.44439 96.5482 9.52199 99.7398 9.91109V13.5891C98.8521 13.5671 98.0118 13.4276 97.219 13.178C96.4262 12.921 95.7079 12.5833 95.071 12.1502C94.4272 11.7244 93.8715 11.2179 93.404 10.6452C92.9296 10.0726 92.5705 9.46327 92.3266 8.80254C92.0623 9.45593 91.6964 10.0726 91.222 10.6452C90.7477 11.2179 90.192 11.7171 89.5551 12.1502C88.9113 12.576 88.1998 12.921 87.4206 13.178C86.6345 13.4349 85.801 13.5744 84.9133 13.5891V9.91109C86.4448 9.70553 87.678 9.08151 88.6199 8.03903C89.5618 6.99656 90.1378 5.54297 90.3479 3.6856H85.3131H85.2996ZM87.0275 23.3385V15.3364H105.96C106.618 15.3364 107.126 15.5493 107.471 15.9677C107.817 16.3862 107.993 16.9001 107.993 17.5168V26.5907H89.9955C89.0333 26.5907 88.2947 26.2824 87.7865 25.6583C87.2783 25.0343 87.0208 24.2635 87.0208 23.3458L87.0275 23.3385ZM104.205 19.0217H90.8155V22.9127H104.205V19.0217ZM99.5636 8.62635V4.94832H104.205V0.0149169H108V13.8754H104.205V8.63368H99.5636V8.62635Z" fill="#F2F2F2" fill-opacity="0.9"/>
</svg>
