<svg xmlns="http://www.w3.org/2000/svg" width="108" height="28" viewBox="0 0 108 28" fill="none">
  <path d="M0 25.5191V21.841H10.6726V15.6156H1.70085V11.9375H5.38035V3.69316H1.70085V0.0151367H23.4391V3.69316H19.7596V11.9375H23.4391V15.6156H14.4673V21.841H25.1399V25.5191H0.00678288H0ZM9.16828 11.9375H15.9581V3.69316H9.16828V11.9375Z" fill="#6A39C0"/>
  <path d="M29.9988 11.7829V3.16413C29.9988 2.75301 30.0734 2.36392 30.2292 1.98217C30.3783 1.60776 30.5884 1.27005 30.8391 0.969056C31.0966 0.675401 31.4015 0.440483 31.7674 0.26429C32.1266 0.0880969 32.5196 0 32.9397 0H51.8252V3.67802H34.2747C34.0646 3.67802 33.9358 3.72942 33.8816 3.8322C33.8274 3.93498 33.7935 4.06712 33.7935 4.22863V10.7257C33.7935 10.9093 33.8207 11.0488 33.8749 11.1369C33.9291 11.2323 34.0646 11.2764 34.2679 11.2764H51.7913V14.9544H42.7653V21.1799H52.9839V24.8579H28.7588V21.1799H38.9774V14.9544H32.9194C32.5061 14.9544 32.1198 14.8736 31.7607 14.7121C31.4015 14.5506 31.0966 14.3157 30.8391 14.022C30.5816 13.7284 30.3783 13.3833 30.2292 12.9942C30.0802 12.6051 30.0056 12.194 30.0056 11.7682L29.9988 11.7829Z" fill="#6A39C0"/>
  <path d="M74.9115 13.2512V0.00733734H78.7062V4.91138H82.6974V8.58941H78.7062V13.8605H75.7924C76.6056 14.5579 77.2425 15.4095 77.7169 16.4227C78.1912 17.4358 78.4216 18.581 78.4216 19.8731C78.4216 21.0404 78.2251 22.1196 77.8253 23.1253C77.4255 24.1311 76.8631 24.9974 76.1244 25.7315C75.3723 26.4657 74.5049 27.0309 73.5359 27.42C72.5669 27.8091 71.4827 28 70.2969 28C69.111 28 68.02 27.8018 67.0443 27.42C66.0617 27.0309 65.1943 26.473 64.4422 25.7315C63.7239 24.9974 63.1683 24.1238 62.7752 23.1253C62.3822 22.1269 62.1789 21.0404 62.1789 19.8731C62.1789 17.7661 62.8023 16.0189 64.0492 14.6314C64.6319 13.9339 65.3366 13.376 66.1566 12.9575C66.9765 12.5391 67.8981 12.2454 68.9145 12.0839C67.9523 11.6728 67.0917 11.1148 66.3395 10.3954C65.5874 9.68328 64.9843 8.73623 64.5303 7.57629C63.7171 9.39695 62.6058 10.7257 61.1896 11.5627C59.753 12.3629 58.1335 12.8841 56.3242 13.1264V9.29418C57.2322 9.1547 58.0522 8.8904 58.7976 8.50865C59.543 8.13424 60.2003 7.5763 60.7627 6.83482C61.3319 6.15941 61.7791 5.30047 62.1044 4.258C62.4364 3.21552 62.599 1.93078 62.599 0.396429V0H66.3937V0.396429C66.3937 1.93078 66.5564 3.21552 66.8749 4.258C67.1933 5.30047 67.6406 6.15941 68.203 6.83482C68.7722 7.56895 69.4295 8.1269 70.1817 8.50865C70.9338 8.8904 71.7673 9.14736 72.6753 9.29418V12.2968C73.0684 12.4216 73.4614 12.5611 73.8476 12.7079C74.2339 12.8621 74.5862 13.0383 74.9115 13.2438V13.2512ZM70.3036 15.3068C69.0026 15.3068 67.9658 15.7252 67.2069 16.5621C66.4479 17.3991 66.0617 18.5076 66.0617 19.8731C66.0617 21.2386 66.4412 22.3985 67.2069 23.2134C67.9726 24.0283 69.0026 24.4394 70.3036 24.4394C71.6047 24.4394 72.594 24.0283 73.3733 23.2134C74.1593 22.3985 74.5456 21.2826 74.5456 19.8731C74.5456 18.4636 74.1526 17.3991 73.3733 16.5621C72.5872 15.7252 71.564 15.3068 70.3036 15.3068Z" fill="#6A39C0"/>
  <path d="M85.2993 3.68536V0.00732422H99.3397V3.68536H94.305C94.7387 7.44414 96.5479 9.52175 99.7395 9.91084V13.5889C98.8519 13.5668 98.0116 13.4274 97.2188 13.1778C96.426 12.9208 95.7077 12.5831 95.0707 12.15C94.427 11.7242 93.8713 11.2176 93.4037 10.645C92.9294 10.0724 92.5703 9.46302 92.3263 8.8023C92.062 9.45568 91.6961 10.0724 91.2218 10.645C90.7474 11.2176 90.1918 11.7168 89.5548 12.15C88.9111 12.5758 88.1996 12.9208 87.4203 13.1778C86.6343 13.4347 85.8008 13.5742 84.9131 13.5889V9.91084C86.4445 9.70528 87.6778 9.08127 88.6197 8.03879C89.5616 6.99632 90.1376 5.54273 90.3477 3.68536H85.3129H85.2993ZM87.0273 23.3382V15.3361H105.96C106.617 15.3361 107.126 15.549 107.471 15.9675C107.817 16.3859 107.993 16.8998 107.993 17.5165V26.5904H89.9953C89.0331 26.5904 88.2945 26.2821 87.7862 25.6581C87.278 25.0341 87.0205 24.2632 87.0205 23.3456L87.0273 23.3382ZM104.205 19.0215H90.8152V22.9124H104.205V19.0215ZM99.5634 8.6261V4.94808H104.205V0.0146728H108V13.8752H104.205V8.63344H99.5634V8.6261Z" fill="#6A39C0"/>
</svg>