<svg xmlns="http://www.w3.org/2000/svg" width="108" height="25" viewBox="0 0 108 25" fill="none">
  <path d="M0 22.785V19.5011H10.6726V13.9426H1.70085V10.6587H5.38035V3.29762H1.70085V0.0136719H23.4391V3.29762H19.7596V10.6587H23.4391V13.9426H14.4673V19.5011H25.1399V22.785H0.00678288H0ZM9.16828 10.6587H15.9581V3.29762H9.16828V10.6587Z" fill="#8C8DC4"/>
  <path d="M29.9988 10.5205V2.82512C29.9988 2.45805 30.0734 2.11064 30.2292 1.76979C30.3783 1.4355 30.5884 1.13397 30.8391 0.865228C31.0966 0.603036 31.4015 0.393288 31.7674 0.235973C32.1266 0.078658 32.5196 0 32.9397 0H51.8252V3.28395H34.2747C34.0646 3.28395 33.9358 3.32984 33.8816 3.42161C33.8274 3.51337 33.7935 3.63135 33.7935 3.77556V9.57656C33.7935 9.74043 33.8207 9.86497 33.8749 9.94363C33.9291 10.0288 34.0646 10.0682 34.2679 10.0682H51.7913V13.3521H42.7653V18.9106H52.9839V22.1945H28.7588V18.9106H38.9774V13.3521H32.9194C32.5061 13.3521 32.1198 13.28 31.7607 13.1358C31.4015 12.9916 31.0966 12.7819 30.8391 12.5197C30.5816 12.2575 30.3783 11.9494 30.2292 11.602C30.0802 11.2546 30.0056 10.8875 30.0056 10.5073L29.9988 10.5205Z" fill="#8C8DC4"/>
  <path d="M74.9115 11.8314V0.0065512H78.7062V4.38516H82.6974V7.66911H78.7062V12.3755H75.7924C76.6056 12.9982 77.2425 13.7585 77.7169 14.6631C78.1912 15.5676 78.4216 16.5902 78.4216 17.7438C78.4216 18.786 78.2251 19.7496 77.8253 20.6476C77.4255 21.5456 76.8631 22.3191 76.1244 22.9746C75.3723 23.6301 74.5049 24.1348 73.5359 24.4822C72.5669 24.8296 71.4827 25 70.2969 25C69.111 25 68.02 24.823 67.0443 24.4822C66.0617 24.1348 65.1943 23.6366 64.4422 22.9746C63.7239 22.3191 63.1683 21.5391 62.7752 20.6476C62.3822 19.7562 62.1789 18.786 62.1789 17.7438C62.1789 15.8626 62.8023 14.3026 64.0492 13.0637C64.6319 12.441 65.3366 11.9428 66.1566 11.5692C66.9765 11.1956 67.8981 10.9334 68.9145 10.7892C67.9523 10.4221 67.0917 9.92397 66.3395 9.2816C65.5874 8.64578 64.9843 7.80021 64.5303 6.76455C63.7171 8.39014 62.6058 9.57656 61.1896 10.3238C59.753 11.0383 58.1335 11.5037 56.3242 11.72V8.29838C57.2322 8.17384 58.0522 7.93786 58.7976 7.59701C59.543 7.26271 60.2003 6.76455 60.7627 6.10252C61.3319 5.49947 61.7791 4.73257 62.1044 3.80179C62.4364 2.871 62.599 1.72391 62.599 0.353955V0H66.3937V0.353955C66.3937 1.72391 66.5564 2.871 66.8749 3.80179C67.1933 4.73257 67.6406 5.49947 68.203 6.10252C68.7722 6.758 69.4295 7.25616 70.1817 7.59701C70.9338 7.93786 71.7673 8.16728 72.6753 8.29838V10.9793C73.0684 11.0907 73.4614 11.2153 73.8476 11.3464C74.2339 11.484 74.5862 11.6413 74.9115 11.8249V11.8314ZM70.3036 13.6668C69.0026 13.6668 67.9658 14.0404 67.2069 14.7876C66.4479 15.5349 66.0617 16.5246 66.0617 17.7438C66.0617 18.963 66.4412 19.9987 67.2069 20.7263C67.9726 21.4539 69.0026 21.8209 70.3036 21.8209C71.6047 21.8209 72.594 21.4539 73.3733 20.7263C74.1593 19.9987 74.5456 19.0024 74.5456 17.7438C74.5456 16.4853 74.1526 15.5349 73.3733 14.7876C72.5872 14.0404 71.564 13.6668 70.3036 13.6668Z" fill="#8C8DC4"/>
  <path d="M85.2993 3.2908V0.00683594H99.3397V3.2908H94.305C94.7387 6.64685 96.5479 8.50186 99.7395 8.84926V12.1332C98.8519 12.1135 98.0116 11.989 97.2188 11.7661C96.426 11.5367 95.7077 11.2352 95.0707 10.8485C94.427 10.4683 93.8713 10.016 93.4037 9.50474C92.9294 8.99347 92.5703 8.44942 92.3263 7.85949C92.062 8.44287 91.6961 8.99347 91.2218 9.50474C90.7474 10.016 90.1918 10.4617 89.5548 10.8485C88.9111 11.2287 88.1996 11.5367 87.4203 11.7661C86.6343 11.9956 85.8008 12.1201 84.9131 12.1332V8.84926C86.4445 8.66573 87.6778 8.10857 88.6197 7.17779C89.5616 6.24701 90.1376 4.94916 90.3477 3.2908H85.3129H85.2993ZM87.0273 20.838V13.6933H105.96C106.617 13.6933 107.126 13.8833 107.471 14.257C107.817 14.6306 107.993 15.0894 107.993 15.64V23.7418H89.9953C89.0331 23.7418 88.2945 23.4665 87.7862 22.9093C87.278 22.3521 87.0205 21.6639 87.0205 20.8445L87.0273 20.838ZM104.205 16.9838H90.8152V20.4578H104.205V16.9838ZM99.5634 7.70217V4.41822H104.205V0.0133971H108V12.3889H104.205V7.70872H99.5634V7.70217Z" fill="#8C8DC4"/>
</svg>