<svg xmlns="http://www.w3.org/2000/svg" width="25" height="27" viewBox="0 0 25 27" fill="none">
  <g clip-path="url(#clip0_2136_117)">
    <path d="M12.4873 1.79204C15.3166 1.79204 17.6337 4.06195 17.6337 6.83363C17.6337 9.60531 15.3166 11.8752 12.4873 11.8752C9.65806 11.8752 7.34099 9.60531 7.34099 6.83363C7.34099 4.06195 9.65806 1.79204 12.4873 1.79204ZM12.4873 0C8.63367 0 5.51172 3.05841 5.51172 6.83363C5.51172 10.6088 8.63367 13.6673 12.4873 13.6673C16.341 13.6673 19.4629 10.6088 19.4629 6.83363C19.4629 3.05841 16.341 0 12.4873 0Z" fill="currentColor"/>
    <path d="M12.4878 14.647C18.3659 14.647 23.1463 18.3267 23.1463 22.8426C23.1463 23.3921 19.8293 25.1842 12.4878 25.1842C5.14634 25.1842 1.82927 23.3921 1.82927 22.8426C1.82927 18.3267 6.60976 14.647 12.4878 14.647ZM12.4878 12.855C5.58537 12.855 0 17.3231 0 22.8426C0 25.6143 6.2439 26.9762 12.4878 26.9762C18.7317 26.9762 24.9756 25.5904 24.9756 22.8426C24.9756 17.3231 19.3902 12.855 12.4878 12.855Z" fill="currentColor"/>
  </g>
  <defs>
    <clipPath id="clip0_2136_117">
      <rect width="25" height="27" fill="white"/>
    </clipPath>
  </defs>
</svg>