<svg width="1920" height="555" viewBox="0 0 1920 555" fill="none" xmlns="http://www.w3.org/2000/svg">
<g clip-path="url(#clip0_5235_218)">
<circle cx="967" cy="496" r="174" fill="#F5F0FF"/>
<circle cx="1145" cy="473" r="174" fill="#F5F0FF"/>
<circle cx="1378" cy="436" r="174" fill="#F5F0FF"/>
<circle cx="1616" cy="412" r="174" fill="#F5F0FF"/>
<circle cx="1812" cy="299" r="174" fill="#F5F0FF"/>
<circle cx="1964" cy="174" r="174" fill="#F5F0FF"/>
<circle cx="1835" cy="404" r="174" fill="#F5F0FF"/>
<circle cx="1746" cy="446" r="174" fill="#F5F0FF"/>
<circle cx="1555" cy="446" r="174" fill="#F5F0FF"/>
<circle cx="486" cy="475" r="174" fill="#F5F0FF"/>
<circle cx="174" cy="174" r="174" transform="matrix(-1 0 0 1 971 299)" fill="#F5F0FF"/>
<circle cx="174" cy="174" r="174" transform="matrix(-1 0 0 1 730 262)" fill="#F5F0FF"/>
<circle cx="174" cy="174" r="174" transform="matrix(-1 0 0 1 492 238)" fill="#F5F0FF"/>
<circle cx="174" cy="174" r="174" transform="matrix(-1 0 0 1 323 143)" fill="#F5F0FF"/>
<circle cx="174" cy="174" r="174" transform="matrix(-1 0 0 1 152 15)" fill="#F5F0FF"/>
<circle cx="174" cy="174" r="174" transform="matrix(-1 0 0 1 281 245)" fill="#F5F0FF"/>
</g>
<defs>
<clipPath id="clip0_5235_218">
<rect width="2334" height="670" fill="white" transform="translate(-196)"/>
</clipPath>
</defs>
</svg>
