<svg width="42" height="42" viewBox="0 0 42 42" fill="none" xmlns="http://www.w3.org/2000/svg">
<circle cx="20.7887" cy="20.789" r="19.799" fill="#9E9E9E" fill-opacity="0.5"/>
<path d="M27.825 13.1824L13.3526 14.2058C13.2419 14.214 13.1373 14.2611 13.0573 14.3411L11.2424 16.1561C11.0906 16.3078 11.2096 16.5662 11.4229 16.5498L24.8391 15.6023L12.8379 27.6035C12.7477 27.6938 12.7477 27.8414 12.8379 27.9316L14.0684 29.1621C14.1586 29.2523 14.3063 29.2523 14.3965 29.1621L26.3956 17.163L25.4481 30.5792C25.4338 30.7945 25.6901 30.9114 25.8419 30.7597L27.7184 28.8832C27.7573 28.8442 27.7819 28.7909 27.784 28.7355L28.8176 14.175C28.8268 14.0423 28.8075 13.9091 28.7609 13.7845C28.7143 13.6598 28.6415 13.5467 28.5474 13.4526C28.4533 13.3585 28.3402 13.2857 28.2155 13.2391C28.0909 13.1925 27.9577 13.1732 27.825 13.1824Z" fill="white"/>
</svg>
