<svg xmlns="http://www.w3.org/2000/svg" width="49" height="50" viewBox="0 0 49 50" fill="none" shape-rendering="crispEdges">
  <path d="M24.6931 22.5595C24.6578 22.5144 24.6126 22.4778 24.5611 22.4527C24.5095 22.4276 24.4529 22.4146 24.3956 22.4146C24.3382 22.4146 24.2816 22.4276 24.23 22.4527C24.1785 22.4778 24.1333 22.5144 24.098 22.5595L18.8077 29.2527C18.7641 29.3084 18.737 29.3752 18.7296 29.4456C18.7222 29.5159 18.7347 29.5869 18.7658 29.6505C18.7968 29.7141 18.8451 29.7676 18.9052 29.805C18.9652 29.8424 19.0345 29.8622 19.1053 29.862H22.5959V41.3117C22.5959 41.5195 22.766 41.6896 22.9738 41.6896H25.8079C26.0157 41.6896 26.1858 41.5195 26.1858 41.3117V29.8667H29.6858C30.0023 29.8667 30.1771 29.503 29.9834 29.2574L24.6931 22.5595Z" fill="black"/>
  <path d="M38.5365 18.1999C36.3732 12.494 30.8609 8.43652 24.404 8.43652C17.947 8.43652 12.4347 12.4893 10.2714 18.1952C6.22335 19.258 3.2334 22.947 3.2334 27.3304C3.2334 32.5498 7.4609 36.7773 12.6756 36.7773H14.5697C14.7775 36.7773 14.9476 36.6072 14.9476 36.3994V33.5653C14.9476 33.3575 14.7775 33.1875 14.5697 33.1875H12.6756C11.0838 33.1875 9.58645 32.5545 8.47172 31.4067C7.3617 30.2636 6.77127 28.7238 6.82323 27.1273C6.86574 25.8803 7.29085 24.7088 8.06078 23.7216C8.84959 22.7155 9.95488 21.9834 11.183 21.6575L12.9732 21.1899L13.6297 19.4611C14.036 18.3841 14.6028 17.378 15.316 16.4664C16.0201 15.5628 16.8542 14.7686 17.7911 14.1094C19.7324 12.7443 22.0186 12.0216 24.404 12.0216C26.7893 12.0216 29.0755 12.7443 31.0168 14.1094C31.9568 14.7707 32.7881 15.5642 33.4919 16.4664C34.2051 17.378 34.7719 18.3889 35.1782 19.4611L35.83 21.1851L37.6155 21.6575C40.1756 22.3471 41.9658 24.6758 41.9658 27.3304C41.9658 28.8938 41.3565 30.3676 40.2512 31.4728C39.7091 32.0181 39.0643 32.4503 38.3541 32.7447C37.6438 33.039 36.8822 33.1895 36.1134 33.1875H34.2193C34.0115 33.1875 33.8414 33.3575 33.8414 33.5653V36.3994C33.8414 36.6072 34.0115 36.7773 34.2193 36.7773H36.1134C41.3281 36.7773 45.5556 32.5498 45.5556 27.3304C45.5556 22.9517 42.5751 19.2674 38.5365 18.1999Z" fill="black"/>
</svg>