<svg xmlns="http://www.w3.org/2000/svg" width="55" height="55" viewBox="0 0 55 55" fill="none">
  <path d="M37.5437 18.96H35.0246C34.4768 18.96 33.9558 19.2231 33.6335 19.6743L25.1901 31.3833L21.3659 26.0767C21.0436 25.6309 20.528 25.3623 19.9748 25.3623H17.4558C17.1066 25.3623 16.9025 25.7598 17.1066 26.0444L23.799 35.3257C23.9571 35.5463 24.1655 35.7262 24.407 35.8502C24.6485 35.9742 24.916 36.0389 25.1874 36.0389C25.4589 36.0389 25.7264 35.9742 25.9679 35.8502C26.2094 35.7262 26.4178 35.5463 26.5759 35.3257L37.8874 19.6421C38.0969 19.3574 37.8928 18.96 37.5437 18.96Z" fill="#6A39C0" stroke="#6A39C0"/>
  <path d="M27.5 3.4375C14.2119 3.4375 3.4375 14.2119 3.4375 27.5C3.4375 40.7881 14.2119 51.5625 27.5 51.5625C40.7881 51.5625 51.5625 40.7881 51.5625 27.5C51.5625 14.2119 40.7881 3.4375 27.5 3.4375ZM27.5 47.4805C16.4678 47.4805 7.51953 38.5322 7.51953 27.5C7.51953 16.4678 16.4678 7.51953 27.5 7.51953C38.5322 7.51953 47.4805 16.4678 47.4805 27.5C47.4805 38.5322 38.5322 47.4805 27.5 47.4805Z" fill="#6A39C0" stroke="#6A39C0"/>
</svg>