<svg xmlns="http://www.w3.org/2000/svg" width="23" height="31" viewBox="0 0 23 31" fill="none">
  <path d="M11.6458 22.9857C11.8252 23.7307 11.7067 24.5027 11.3038 25.1562C10.9042 25.8131 10.2744 26.2702 9.52611 26.453L8.97419 26.5851L7.69427 26.8932C7.69427 26.8932 7.67734 26.8966 7.66718 26.9C7.41323 26.9542 7.15928 26.9914 6.90532 27.0117C6.72248 27.0287 6.53963 27.0388 6.35678 27.0388C5.88612 27.0388 5.41885 26.9847 4.95158 26.8797C1.56893 26.1077 -0.557499 22.725 0.214517 19.3424C0.475241 18.1945 1.04409 17.1618 1.85336 16.3356C1.03394 15.5229 0.451539 14.497 0.17727 13.3525C-0.638764 9.97999 1.44026 6.57025 4.81614 5.75422C7.64686 5.07024 10.5047 6.42804 11.832 8.87953C12.1909 9.5398 11.7169 10.3457 10.9652 10.3457C10.5961 10.3457 10.2643 10.1324 10.0882 9.8073C9.17396 8.1346 7.22022 7.21021 5.28341 7.67748C2.96736 8.23618 1.54184 10.5759 2.10054 12.892C2.36126 13.9721 3.01815 14.8999 3.94931 15.5026C4.22697 15.6821 4.39627 15.9936 4.39966 16.3254C4.39966 16.6471 4.24729 16.9451 3.98995 17.1313C3.54299 17.453 3.10619 17.8017 2.80145 18.2622C1.01023 20.9914 2.55765 24.3097 5.39515 24.9564C5.6728 25.0208 5.95384 25.0546 6.23489 25.0648C6.57349 25.0749 6.90871 25.0445 7.24393 24.9767L8.19201 24.7465L9.0216 24.5467C9.45839 24.4417 9.78345 24.0422 9.74621 23.5952C9.72928 23.4022 9.65817 23.2262 9.53966 23.0873C9.45162 22.9824 9.33988 22.8977 9.21121 22.8401L9.60738 21.9361L10.0035 21.032C10.8331 21.3943 11.4324 22.1088 11.6424 22.9891L11.6458 22.9857Z" fill="url(#paint0_linear_2136_106)"/>
  <path d="M10.0037 21.0318L9.60754 21.9359L9.21137 22.8399C9.08609 22.7857 8.88631 22.7316 8.64252 22.7891C8.40888 22.8467 8.21249 22.9889 8.08721 23.1955C7.96192 23.402 7.92468 23.6424 7.98224 23.876L8.19217 24.7463L7.24409 24.9765C6.90887 25.0476 6.57365 25.0747 6.23505 25.0645L6.05898 24.3399C5.87952 23.5916 5.99803 22.823 6.40096 22.1661C6.80052 21.5126 7.43032 21.0521 8.17863 20.8726C8.79489 20.7237 9.42469 20.7778 10.0037 21.0318Z" fill="url(#paint1_linear_2136_106)"/>
  <path d="M22.9788 18.6413C22.7791 21.4585 20.6052 23.673 17.9133 24.0319C18.0048 26.7475 16.1797 29.2532 13.437 29.9202C12.9765 30.0319 12.5126 30.0861 12.0487 30.0861C10.9855 30.0861 9.93922 29.7949 9.00807 29.2261C8.11077 28.6809 7.39631 27.9191 6.91211 27.0184C7.16606 26.9981 7.42001 26.9608 7.67397 26.9066C7.68413 26.9066 7.6909 26.9033 7.70106 26.8999L8.98098 26.5917C9.26879 26.9642 9.62432 27.2893 10.0408 27.5432C10.9246 28.0816 11.9675 28.2475 12.9765 28.0037C15.0555 27.4992 16.3388 25.3999 15.8377 23.3174C15.7395 22.9111 15.9054 22.4743 16.2847 22.2373C16.4709 22.1222 16.6977 22.0883 16.9178 22.1019C19.0341 22.2238 20.866 20.6222 21.0149 18.5025C21.0657 17.8084 20.9303 17.1278 20.6289 16.5183C20.4867 16.2271 20.4766 15.8851 20.6391 15.6041C20.6425 15.5973 20.6459 15.5905 20.6493 15.5837C21.0285 14.9133 22.0037 14.9133 22.3524 15.6007C22.7452 16.3761 23.0737 17.4156 22.9856 18.6413H22.9788Z" fill="url(#paint2_linear_2136_106)"/>
  <path d="M18.4953 0.285773C18.9084 0.698869 18.8745 1.37608 18.4242 1.74854C17.2898 2.69324 16.0031 3.40092 14.6216 3.85127C13.9817 4.0612 13.3214 4.21018 12.6476 4.30499C12.1126 4.37949 11.5674 4.42012 11.0155 4.42012C8.27961 4.42012 5.68929 3.48219 3.61365 1.75531C3.16331 1.37946 3.11929 0.702255 3.53577 0.285773C3.90146 -0.0799191 4.48047 -0.093463 4.88003 0.238368C6.60352 1.66727 8.75026 2.44606 11.0189 2.44606C13.2875 2.44606 15.4309 1.66727 17.1578 0.238368C17.5573 -0.090077 18.1364 -0.0799191 18.502 0.285773H18.4953Z" fill="url(#paint3_linear_2136_106)"/>
  <path d="M8.52714 11.6225C9.02489 11.6225 9.43122 11.9848 9.5328 12.4724C9.7021 13.2986 10.1186 14.0537 10.745 14.653C11.5306 15.4047 12.5498 15.811 13.6333 15.811C13.701 15.811 13.7653 15.811 13.8331 15.8076C15.4719 15.7331 16.8839 14.6835 17.4968 13.2376C17.6085 12.9701 17.6965 12.6925 17.7507 12.4013C17.7846 12.2116 17.8083 12.022 17.8184 11.8256C17.9132 9.76693 16.4674 7.91477 14.4561 7.51522C13.4064 7.30529 12.6479 6.38767 12.6479 5.33123V4.30187C13.3218 4.20706 13.982 4.05469 14.622 3.84814V5.33123C14.622 5.44974 14.71 5.55132 14.8387 5.57841C17.8489 6.17774 19.9313 8.84255 19.7891 11.9171C19.7722 12.2658 19.7248 12.6044 19.6537 12.9329C19.5081 13.5898 19.2575 14.2094 18.9189 14.7749C17.8828 16.495 16.0306 17.6869 13.9211 17.7817C12.2518 17.8596 10.6637 17.2772 9.44476 16.1462V19.4578H7.4707V12.6417C7.4707 12.0762 7.92781 11.6191 8.49328 11.6225H8.52714Z" fill="#8C8DC4"/>
  <defs>
    <linearGradient id="paint0_linear_2136_106" x1="3.99333" y1="10.3626" x2="7.59946" y2="19.6403" gradientUnits="userSpaceOnUse">
      <stop offset="0.36" stop-color="#8C8DC4"/>
      <stop offset="0.92" stop-color="#D3A9C9"/>
    </linearGradient>
    <linearGradient id="paint1_linear_2136_106" x1="8.05673" y1="27.1402" x2="7.98901" y2="22.0544" gradientUnits="userSpaceOnUse">
      <stop offset="0.17" stop-color="#8C8DC4"/>
      <stop offset="0.82" stop-color="#D3A9C9"/>
    </linearGradient>
    <linearGradient id="paint2_linear_2136_106" x1="11.2225" y1="22.7723" x2="18.6549" y2="22.5217" gradientUnits="userSpaceOnUse">
      <stop stop-color="#8C8DC4"/>
      <stop offset="1" stop-color="#D3A9C9"/>
    </linearGradient>
    <linearGradient id="paint3_linear_2136_106" x1="3.24457" y1="2.20904" x2="18.7831" y2="2.20904" gradientUnits="userSpaceOnUse">
      <stop stop-color="#8C8DC4"/>
      <stop offset="1" stop-color="#D3A9C9"/>
    </linearGradient>
  </defs>
</svg>