<svg width="210" height="297" viewBox="0 0 210 297" fill="none" xmlns="http://www.w3.org/2000/svg">
<rect opacity="0.3" width="210" height="297" fill="#3C3C3C"/>
<path d="M111.104 145.631H105.342V139.088C105.342 138.873 105.166 138.697 104.951 138.697H102.022C101.807 138.697 101.631 138.873 101.631 139.088V145.631H95.8693C95.6544 145.631 95.4786 145.806 95.4786 146.021V148.951C95.4786 149.166 95.6544 149.342 95.8693 149.342H101.631V155.885C101.631 156.099 101.807 156.275 102.022 156.275H104.951C105.166 156.275 105.342 156.099 105.342 155.885V149.342H111.104C111.318 149.342 111.494 149.166 111.494 148.951V146.021C111.494 145.806 111.318 145.631 111.104 145.631ZM124.971 166.334L117.842 159.205C123.804 151.934 123.389 141.163 116.572 134.351C109.346 127.12 97.6075 127.12 90.3517 134.351C83.1202 141.607 83.1202 153.345 90.3517 160.572C97.1632 167.388 107.935 167.803 115.205 161.842L122.334 168.97C122.49 169.107 122.739 169.107 122.871 168.97L124.971 166.871C125.108 166.739 125.108 166.49 124.971 166.334ZM113.984 157.984C108.184 163.78 98.7892 163.78 92.9884 157.984C87.1925 152.183 87.1925 142.789 92.9884 136.988C98.7892 131.192 108.184 131.192 113.984 136.988C119.78 142.789 119.78 152.183 113.984 157.984Z" fill="white"/>
</svg>
