<svg width="20" height="20" viewBox="0 0 20 20" fill="none" xmlns="http://www.w3.org/2000/svg">
<path d="M8.45923 12.8496C8.51672 12.9299 8.59251 12.9952 8.68031 13.0403C8.76812 13.0854 8.8654 13.109 8.96412 13.109C9.06283 13.109 9.16011 13.0854 9.24792 13.0403C9.33572 12.9952 9.41151 12.9299 9.469 12.8496L13.5823 7.14648C13.6565 7.04297 13.5823 6.89844 13.4553 6.89844H12.5393C12.3401 6.89844 12.1506 6.99414 12.0335 7.1582L8.96509 11.416L7.57447 9.48633C7.45728 9.32422 7.26978 9.22656 7.06861 9.22656H6.15259C6.02564 9.22656 5.95142 9.37109 6.02564 9.47461L8.45923 12.8496Z" fill="#777777"/>
<path d="M17.1875 2.1875H2.8125C2.4668 2.1875 2.1875 2.4668 2.1875 2.8125V17.1875C2.1875 17.5332 2.4668 17.8125 2.8125 17.8125H17.1875C17.5332 17.8125 17.8125 17.5332 17.8125 17.1875V2.8125C17.8125 2.4668 17.5332 2.1875 17.1875 2.1875ZM16.4062 16.4063H3.59375V3.59375H16.4062V16.4063Z" fill="#777777"/>
</svg>
