<svg width="15" height="15" viewBox="0 0 15 15" fill="none" xmlns="http://www.w3.org/2000/svg">
<g id="react-icons/ai/AiOutlineEye">
<path id="Vector" d="M13.8014 7.12207C12.4127 4.19678 10.3136 2.72461 7.49963 2.72461C4.6842 2.72461 2.58654 4.19678 1.19787 7.12354C1.14217 7.24148 1.11328 7.3703 1.11328 7.50073C1.11328 7.63117 1.14217 7.75998 1.19787 7.87793C2.58654 10.8032 4.68566 12.2754 7.49963 12.2754C10.3151 12.2754 12.4127 10.8032 13.8014 7.87646C13.9142 7.63916 13.9142 7.36377 13.8014 7.12207ZM7.49963 11.2207C5.13683 11.2207 3.40685 10.0225 2.18664 7.5C3.40685 4.97754 5.13683 3.7793 7.49963 3.7793C9.86242 3.7793 11.5924 4.97754 12.8126 7.5C11.5939 10.0225 9.86388 11.2207 7.49963 11.2207ZM7.44103 4.92188C6.0172 4.92188 4.86291 6.07617 4.86291 7.5C4.86291 8.92383 6.0172 10.0781 7.44103 10.0781C8.86486 10.0781 10.0192 8.92383 10.0192 7.5C10.0192 6.07617 8.86486 4.92188 7.44103 4.92188ZM7.44103 9.14062C6.53429 9.14062 5.80041 8.40674 5.80041 7.5C5.80041 6.59326 6.53429 5.85938 7.44103 5.85938C8.34777 5.85938 9.08166 6.59326 9.08166 7.5C9.08166 8.40674 8.34777 9.14062 7.44103 9.14062Z" fill="black"/>
</g>
</svg>
