<svg width="10" height="16" viewBox="0 0 10 16" fill="none" xmlns="http://www.w3.org/2000/svg">
<path d="M9.76383 7.50156L1.27781 0.190145C1.13622 0.0680893 0.948103 0 0.752481 0C0.556858 0 0.368743 0.0680893 0.22715 0.190145L0.218013 0.198407C0.149134 0.257577 0.094286 0.3288 0.0568066 0.407743C0.0193272 0.486685 0 0.571697 0 0.657607C0 0.743518 0.0193272 0.82853 0.0568066 0.907472C0.094286 0.986415 0.149134 1.05764 0.218013 1.11681L8.20915 8.00138L0.218013 14.8832C0.149134 14.9424 0.094286 15.0136 0.0568066 15.0925C0.0193272 15.1715 0 15.2565 0 15.3424C0 15.4283 0.0193272 15.5133 0.0568066 15.5923C0.094286 15.6712 0.149134 15.7424 0.218013 15.8016L0.22715 15.8099C0.368743 15.9319 0.556858 16 0.752481 16C0.948103 16 1.13622 15.9319 1.27781 15.8099L9.76383 8.49844C9.83846 8.43414 9.89787 8.35681 9.93847 8.27113C9.97907 8.18545 10 8.09321 10 8C10 7.90679 9.97907 7.81454 9.93847 7.72887C9.89787 7.64319 9.83846 7.56585 9.76383 7.50156Z" fill="black"/>
</svg>
