<svg xmlns="http://www.w3.org/2000/svg" width="25" height="25" viewBox="0 0 25 25" fill="none">
  <path d="M22.1694 8.6211L15.9707 7.72022L13.1997 2.10255C13.124 1.94874 12.9995 1.82423 12.8457 1.74854C12.4599 1.55811 11.9912 1.71681 11.7983 2.10255L9.02731 7.72022L2.82858 8.6211C2.65768 8.64552 2.50143 8.72608 2.3818 8.84815C2.23717 8.9968 2.15748 9.19679 2.16022 9.40416C2.16297 9.61154 2.24794 9.80935 2.39645 9.95411L6.88131 14.3267L5.82174 20.501C5.79689 20.6446 5.81279 20.7923 5.86762 20.9274C5.92245 21.0624 6.01403 21.1794 6.13196 21.2651C6.2499 21.3507 6.38948 21.4016 6.53487 21.412C6.68027 21.4224 6.82565 21.3918 6.95455 21.3237L12.499 18.4087L18.0434 21.3237C18.1948 21.4043 18.3706 21.4312 18.539 21.4019C18.9638 21.3286 19.2495 20.9258 19.1762 20.501L18.1167 14.3267L22.6015 9.95411C22.7236 9.83448 22.8042 9.67823 22.8286 9.50733C22.8945 9.08009 22.5966 8.68458 22.1694 8.6211Z" fill="#6A39C0"/>
</svg>