<svg xmlns="http://www.w3.org/2000/svg" width="50" height="42" viewBox="0 0 50 42" fill="none">
  <path d="M25 42C28.283 42 31.5339 41.4568 34.5671 40.4015C37.6002 39.3461 40.3562 37.7993 42.6777 35.8492C44.9991 33.8992 46.8406 31.5842 48.097 29.0364C49.3534 26.4885 50 23.7578 50 21C50 18.2422 49.3534 15.5115 48.097 12.9636C46.8406 10.4158 44.9991 8.10079 42.6777 6.15076C40.3562 4.20073 37.6002 2.65388 34.5671 1.59853C31.5339 0.543182 28.283 0 25 0L25 21V42Z" fill="#F9F9F9"/>
  <path d="M27.2125 21.2788L34.85 32.7029C34.9774 32.8936 35.1467 33 35.3228 33C35.4988 33 35.6681 32.8936 35.7956 32.7029L35.8038 32.69C35.8658 32.5975 35.9151 32.4862 35.9489 32.3629C35.9826 32.2395 36 32.1067 36 31.9725C36 31.8382 35.9826 31.7054 35.9489 31.5821C35.9151 31.4587 35.8658 31.3474 35.8038 31.255L28.6118 20.4978L35.8038 9.74501C35.8658 9.65256 35.9151 9.54127 35.9489 9.41792C35.9826 9.29457 36 9.16175 36 9.02751C36 8.89328 35.9826 8.76044 35.9489 8.6371C35.9151 8.51375 35.8658 8.40246 35.8038 8.31001L35.7956 8.2971C35.6681 8.10639 35.4988 8 35.3228 8C35.1467 8 34.9774 8.10639 34.85 8.2971L27.2125 19.7212C27.1454 19.8216 27.0919 19.9425 27.0554 20.0764C27.0188 20.2102 27 20.3544 27 20.5C27 20.6456 27.0188 20.7898 27.0554 20.9236C27.0919 21.0575 27.1454 21.1783 27.2125 21.2788Z" fill="black"/>
</svg>