<svg width="20" height="21" viewBox="0 0 20 21" fill="none" xmlns="http://www.w3.org/2000/svg">
<path d="M6.10819 17.9518C5.00261 17.5444 4.01875 16.8626 3.24907 15.9705C2.47939 15.0784 1.94916 14.0052 1.70819 12.8518L0.0481934 5.04184C-0.191807 3.96184 0.498193 2.90184 1.57819 2.67184L11.3482 0.601837L11.3782 0.591837C12.4482 0.381837 13.4982 1.07184 13.7182 2.13184L14.0682 3.80184L18.4182 4.73184H18.4482C19.4982 4.97184 20.1782 6.03184 19.9582 7.09184L18.2982 14.9118C18.1066 15.8101 17.7399 16.6619 17.2191 17.4185C16.6982 18.175 16.0334 18.8216 15.2627 19.3212C14.4919 19.8208 13.6303 20.1637 12.727 20.3302C11.8237 20.4968 10.8964 20.4837 9.99819 20.2918C8.47471 19.9729 7.10382 19.1483 6.10819 17.9518ZM17.9982 6.68184L8.22819 4.60184L6.56819 12.4218V12.4518C5.99819 15.1318 7.72819 17.7718 10.4182 18.3418C13.1082 18.9118 15.7682 17.1918 16.3382 14.5018L17.9982 6.68184ZM13.9982 15.0018C13.6825 15.5369 13.2065 15.959 12.6375 16.2085C12.0686 16.458 11.4356 16.5221 10.8282 16.3918C10.2224 16.2628 9.67215 15.9476 9.25436 15.4904C8.83658 15.0332 8.57219 14.4568 8.49819 13.8418L13.9982 15.0018ZM6.46819 3.67184L1.99819 4.63184L3.65819 12.4418L3.66819 12.4718C3.81819 13.1818 4.11819 13.8218 4.52819 14.3718C4.42819 13.6018 4.44819 12.8018 4.61819 12.0018L5.04819 10.0018C4.59819 9.92184 4.20819 9.67184 3.99819 9.31184C4.05819 8.70184 4.55819 8.16184 5.24819 8.00184H5.49819L6.27819 4.19184C6.31819 4.00184 6.37819 3.83184 6.46819 3.67184ZM13.0282 10.7318C13.3482 10.2018 14.0282 9.92184 14.7182 10.0718C15.4082 10.2118 15.9082 10.7418 15.9982 11.3618C15.6682 11.8818 14.9982 12.1618 14.2982 12.0018C13.6082 11.8718 13.1082 11.3418 13.0282 10.7318ZM8.14819 9.69184C8.46819 9.16184 9.13819 8.88184 9.82819 9.03184C10.4982 9.17184 11.0282 9.71184 11.1082 10.3218C10.7782 10.8418 10.1082 11.1318 9.41819 11.0018C8.72819 10.8318 8.22819 10.3018 8.14819 9.69184ZM9.96819 2.93184L11.9282 3.35184L11.7682 2.55184L9.96819 2.93184Z" fill="black"/>
</svg>
