<svg xmlns="http://www.w3.org/2000/svg" width="56" height="42" viewBox="0 0 56 42" fill="none">
  <path d="M28 0C24.323 -3.2886e-08 20.682 0.543181 17.2849 1.59853C13.8877 2.65388 10.8011 4.20073 8.20101 6.15076C5.60097 8.10079 3.5385 10.4158 2.13137 12.9636C0.724241 15.5115 -1.16879e-07 18.2422 0 21C1.16879e-07 23.7578 0.724242 26.4885 2.13137 29.0364C3.53851 31.5842 5.60097 33.8992 8.20101 35.8492C10.8011 37.7993 13.8877 39.3461 17.2849 40.4015C20.682 41.4568 24.323 42 28 42L28 21V0Z" fill="#F9F9F9"/>
  <path d="M21.7638 19.7212L13.2778 8.2971C13.1362 8.10639 12.9481 8 12.7525 8C12.5569 8 12.3687 8.10639 12.2271 8.2971L12.218 8.31001C12.1491 8.40246 12.0943 8.51375 12.0568 8.6371C12.0193 8.76045 12 8.89328 12 9.02751C12 9.16175 12.0193 9.29458 12.0568 9.41793C12.0943 9.54127 12.1491 9.65256 12.218 9.74501L20.2092 20.5021L12.218 31.255C12.1491 31.3474 12.0943 31.4587 12.0568 31.5821C12.0193 31.7054 12 31.8382 12 31.9725C12 32.1067 12.0193 32.2395 12.0568 32.3629C12.0943 32.4862 12.1491 32.5975 12.218 32.69L12.2271 32.7029C12.3687 32.8936 12.5569 33 12.7525 33C12.9481 33 13.1362 32.8936 13.2778 32.7029L21.7638 21.2788C21.8385 21.1784 21.8979 21.0575 21.9385 20.9236C21.9791 20.7898 22 20.6456 22 20.5C22 20.3544 21.9791 20.2102 21.9385 20.0764C21.8979 19.9425 21.8385 19.8216 21.7638 19.7212Z" fill="black"/>
</svg>