<svg xmlns="http://www.w3.org/2000/svg" width="30" height="30" viewBox="0 0 30 30" fill="none">
  <path d="M29.6217 14.8896L26.1 13.7545C23.8474 13.0112 22.5277 11.1884 21.9084 8.89793L20.3586 1.34888C20.3181 1.19972 20.2195 1 19.9162 1C19.6608 1 19.5142 1.19972 19.4737 1.34888L17.924 8.90046C17.3021 11.191 15.9849 13.0138 13.7323 13.757L10.2106 14.8922C9.71257 15.054 9.70499 15.7568 10.2005 15.9262L13.7475 17.1473C15.9925 17.8931 17.3021 19.7133 17.924 21.9937L19.4763 29.4593C19.5167 29.6085 19.6002 29.8765 19.9187 29.8765C20.2549 29.8765 20.3207 29.6085 20.3611 29.4593L21.9134 21.9937C22.5353 19.7108 23.8449 17.8905 26.0899 17.1473L29.6369 15.9262C30.1274 15.7543 30.1198 15.0514 29.6217 14.8896Z" fill="#FDD835"/>
  <path d="M29.9554 15.2055C29.8998 15.0665 29.7911 14.9451 29.6217 14.8895L26.1 13.7544C23.8474 13.0111 22.5277 11.1883 21.9083 8.8978L20.3586 1.34876C20.3358 1.2628 20.2549 1.10605 20.1614 1.06055L20.662 8.6374C21.0336 12.0959 21.3521 13.724 24.1129 14.1993C26.4843 14.6089 29.2273 15.0791 29.9554 15.2055Z" fill="#FFEE58"/>
  <path d="M29.963 15.6001L23.855 17.0007C21.7035 17.5468 20.5178 18.7931 20.5178 22.0545L19.9187 29.8765C20.1235 29.8563 20.2903 29.7451 20.3611 29.4594L21.9134 21.9938C22.5353 19.7109 23.8449 17.8906 26.0899 17.1473L29.6369 15.9262C29.8037 15.8656 29.9099 15.7417 29.963 15.6001Z" fill="#F4B400"/>
  <path d="M9.45212 21.4575C7.34618 20.7623 7.15404 19.9786 6.8001 18.6564L5.91778 15.5619C5.86468 15.3622 5.34389 15.3622 5.28827 15.5619L4.6891 18.4212C4.33263 19.7384 3.57418 20.7851 2.27977 21.2123L0.216805 22.1073C-0.0688752 22.2008 -0.0739315 22.6053 0.211749 22.7014L2.28989 23.4371C3.57924 23.8643 4.33263 24.911 4.69162 26.2231L5.2908 28.9586C5.34641 29.1583 5.86468 29.1583 5.91778 28.9586L6.6206 26.2357C6.97707 24.916 7.52315 23.8669 9.27515 23.4371L11.2269 22.7014C11.5126 22.6028 11.51 22.1983 11.2218 22.1047L9.45212 21.4575Z" fill="#FDD835"/>
  <path d="M6.08465 18.6108C6.29955 20.5979 6.40826 21.1491 8.01869 21.5612L11.3735 22.216C11.3381 22.1679 11.2876 22.1275 11.2193 22.1072L9.44962 21.4575C7.60154 20.8255 7.09086 20.0215 6.7445 18.4136C6.39815 16.8057 6.02904 15.7565 6.02904 15.7565C5.9001 15.4102 5.71555 15.4279 5.71555 15.4279L6.08465 18.6108Z" fill="#FFEE58"/>
  <path d="M6.1452 25.5484C6.1452 23.675 7.1691 22.7472 8.79723 22.7472L11.3304 22.6436C11.3304 22.6436 11.1838 22.8382 10.9285 22.8989L9.27505 23.4374C7.87193 24.0012 7.23231 24.2843 6.79747 26.2032C6.79747 26.2032 6.23622 28.4355 6.13003 28.6707C5.9834 28.9993 5.80896 29.0676 5.80896 29.0676L6.1452 25.5484Z" fill="#F4B400"/>
  <path d="M13.9851 6.62509C14.1267 6.57705 14.1216 6.3748 13.9775 6.33435L12.0258 5.8085C11.6162 5.69726 11.2977 5.38124 11.1814 4.97421L10.4128 1.80138C10.3749 1.64717 10.1549 1.64717 10.117 1.80391L9.39397 4.9641C9.28273 5.38377 8.95407 5.70737 8.5344 5.81608L6.59531 6.31918C6.45121 6.3571 6.44109 6.55936 6.58267 6.60992L8.62794 7.3178C8.99452 7.44421 9.27767 7.74253 9.38891 8.11417L10.1195 11.0443C10.1575 11.196 10.3749 11.1985 10.4128 11.0443L11.1687 8.10405C11.2825 7.73242 11.5682 7.43662 11.9373 7.31274L13.9851 6.62509Z" fill="#F4B400" stroke="#F4B400" stroke-width="1.43498" stroke-miterlimit="10"/>
</svg>