<svg xmlns="http://www.w3.org/2000/svg" width="20" height="20" viewBox="0 0 20 20" fill="none">
  <path d="M8.45923 12.8457C8.51672 12.9259 8.59251 12.9913 8.68031 13.0364C8.76812 13.0815 8.8654 13.1051 8.96412 13.1051C9.06283 13.1051 9.16011 13.0815 9.24792 13.0364C9.33572 12.9913 9.41151 12.9259 9.469 12.8457L13.5823 7.14258C13.6565 7.03906 13.5823 6.89453 13.4553 6.89453H12.5393C12.3401 6.89453 12.1506 6.99023 12.0335 7.1543L8.96509 11.4121L7.57447 9.48242C7.45728 9.32031 7.26978 9.22266 7.06861 9.22266H6.15259C6.02564 9.22266 5.95142 9.36719 6.02564 9.4707L8.45923 12.8457Z" fill="#777777"/>
  <path d="M17.1875 2.1875H2.8125C2.4668 2.1875 2.1875 2.4668 2.1875 2.8125V17.1875C2.1875 17.5332 2.4668 17.8125 2.8125 17.8125H17.1875C17.5332 17.8125 17.8125 17.5332 17.8125 17.1875V2.8125C17.8125 2.4668 17.5332 2.1875 17.1875 2.1875ZM16.4062 16.4063H3.59375V3.59375H16.4062V16.4063Z" fill="#777777"/>
</svg>