<svg xmlns="http://www.w3.org/2000/svg" width="50" height="50" viewBox="0 0 50 50" fill="none">
  <path d="M34.1305 17.2363H31.8405C31.3424 17.2363 30.8688 17.4756 30.5758 17.8857L22.9 28.5303L19.4235 23.7061C19.1305 23.3008 18.6618 23.0566 18.1588 23.0566H15.8688C15.5514 23.0566 15.3659 23.418 15.5514 23.6768L21.6354 32.1143C21.7791 32.3149 21.9686 32.4783 22.1881 32.5911C22.4076 32.7038 22.6508 32.7627 22.8976 32.7627C23.1444 32.7627 23.3876 32.7038 23.6071 32.5911C23.8266 32.4783 24.0161 32.3149 24.1598 32.1143L34.443 17.8564C34.6334 17.5977 34.4479 17.2363 34.1305 17.2363Z" fill="#9591F2"/>
  <path d="M25 3.125C12.9199 3.125 3.125 12.9199 3.125 25C3.125 37.0801 12.9199 46.875 25 46.875C37.0801 46.875 46.875 37.0801 46.875 25C46.875 12.9199 37.0801 3.125 25 3.125ZM25 43.1641C14.9707 43.1641 6.83594 35.0293 6.83594 25C6.83594 14.9707 14.9707 6.83594 25 6.83594C35.0293 6.83594 43.1641 14.9707 43.1641 25C43.1641 35.0293 35.0293 43.1641 25 43.1641Z" fill="#BBBDF2" stroke="#BBBDF2"/>
</svg>