<svg xmlns="http://www.w3.org/2000/svg" width="50" height="50" viewBox="0 0 50 50" fill="none">
  <path d="M34.1315 17.2363H31.8414C31.3434 17.2363 30.8698 17.4756 30.5768 17.8857L22.901 28.5303L19.4244 23.7061C19.1315 23.3008 18.6627 23.0566 18.1598 23.0566H15.8698C15.5524 23.0566 15.3668 23.418 15.5524 23.6768L21.6364 32.1143C21.7801 32.3149 21.9696 32.4783 22.1891 32.5911C22.4086 32.7038 22.6518 32.7627 22.8986 32.7627C23.1453 32.7627 23.3886 32.7038 23.6081 32.5911C23.8276 32.4783 24.017 32.3149 24.1608 32.1143L34.444 17.8564C34.6344 17.5977 34.4489 17.2363 34.1315 17.2363Z" fill="#6A39C0"/>
  <path d="M25 3.125C12.9199 3.125 3.125 12.9199 3.125 25C3.125 37.0801 12.9199 46.875 25 46.875C37.0801 46.875 46.875 37.0801 46.875 25C46.875 12.9199 37.0801 3.125 25 3.125ZM25 43.1641C14.9707 43.1641 6.83594 35.0293 6.83594 25C6.83594 14.9707 14.9707 6.83594 25 6.83594C35.0293 6.83594 43.1641 14.9707 43.1641 25C43.1641 35.0293 35.0293 43.1641 25 43.1641Z" fill="#DFCDFF" stroke="#BBBDF2"/>
</svg>