<svg xmlns="http://www.w3.org/2000/svg" width="8" height="20" viewBox="0 0 8 20" fill="none">
  <path d="M0.188937 10.6231L6.97775 19.7623C7.09102 19.9149 7.24152 20 7.39802 20C7.55451 20 7.70501 19.9149 7.81828 19.7623L7.82559 19.752C7.88069 19.678 7.92457 19.589 7.95455 19.4903C7.98454 19.3916 8 19.2854 8 19.178C8 19.0706 7.98454 18.9643 7.95455 18.8657C7.92457 18.767 7.88069 18.678 7.82559 18.604L1.43268 9.99828L7.82559 1.39601C7.88069 1.32205 7.92457 1.23302 7.95455 1.13434C7.98454 1.03566 8 0.929398 8 0.82201C8 0.714622 7.98454 0.608358 7.95455 0.50968C7.92457 0.411001 7.88069 0.321974 7.82559 0.248011L7.81828 0.237682C7.70501 0.0851116 7.55451 0 7.39802 0C7.24152 0 7.09102 0.0851116 6.97775 0.237682L0.188937 9.37695C0.129232 9.45732 0.0817007 9.55398 0.0492236 9.66108C0.0167465 9.76818 0 9.88348 0 10C0 10.1165 0.0167465 10.2318 0.0492236 10.3389C0.0817007 10.446 0.129232 10.5427 0.188937 10.6231Z" fill="black"/>
</svg>