<svg width="15" height="16" viewBox="0 0 15 16" fill="none" xmlns="http://www.w3.org/2000/svg">
<g id="react-icons/ai/AiOutlineCheckCircle">
<path id="Vector" d="M10.2404 5.67188H9.55341C9.40399 5.67188 9.26191 5.74365 9.17401 5.8667L6.87128 9.06006L5.82831 7.61279C5.74042 7.49121 5.59979 7.41797 5.44892 7.41797H4.7619C4.66669 7.41797 4.61103 7.52637 4.66669 7.604L6.49189 10.1353C6.535 10.1954 6.59184 10.2445 6.6577 10.2783C6.72355 10.3121 6.79651 10.3298 6.87055 10.3298C6.94458 10.3298 7.01755 10.3121 7.0834 10.2783C7.14925 10.2445 7.20609 10.1954 7.24921 10.1353L10.3342 5.85791C10.3913 5.78027 10.3356 5.67188 10.2404 5.67188Z" fill="#6A39C0"/>
<path id="Vector_2" d="M7.5 1.4375C3.87598 1.4375 0.9375 4.37598 0.9375 8C0.9375 11.624 3.87598 14.5625 7.5 14.5625C11.124 14.5625 14.0625 11.624 14.0625 8C14.0625 4.37598 11.124 1.4375 7.5 1.4375ZM7.5 13.4492C4.49121 13.4492 2.05078 11.0088 2.05078 8C2.05078 4.99121 4.49121 2.55078 7.5 2.55078C10.5088 2.55078 12.9492 4.99121 12.9492 8C12.9492 11.0088 10.5088 13.4492 7.5 13.4492Z" fill="#6A39C0"/>
</g>
</svg>
