<svg xmlns="http://www.w3.org/2000/svg" width="16" height="16" viewBox="0 0 16 16" fill="none">
  <path d="M11.5902 7.36867L4.76655 2.03903C4.74872 2.025 4.7273 2.01627 4.70473 2.01386C4.68217 2.01146 4.65938 2.01546 4.63899 2.02542C4.6186 2.03538 4.60143 2.05089 4.58945 2.07016C4.57748 2.08944 4.57118 2.1117 4.57129 2.1344V3.30446C4.57129 3.37863 4.6061 3.44978 4.66362 3.49519L10.1128 7.75012L4.66362 12.0051C4.60459 12.0505 4.57129 12.1216 4.57129 12.1958V13.3658C4.57129 13.4673 4.68784 13.5233 4.76655 13.4612L11.5902 8.13156C11.6482 8.08632 11.6951 8.02846 11.7274 7.96236C11.7596 7.89626 11.7764 7.82367 11.7764 7.75012C11.7764 7.67656 11.7596 7.60398 11.7274 7.53788C11.6951 7.47178 11.6482 7.41391 11.5902 7.36867Z" fill="#3C3C3C"/>
</svg>