<svg xmlns="http://www.w3.org/2000/svg" width="20" height="20" viewBox="0 0 20 20" fill="none">
  <path d="M10 1.24976C5.16797 1.24976 1.25 5.16772 1.25 9.99976C1.25 14.8318 5.16797 18.7498 10 18.7498C14.832 18.7498 18.75 14.8318 18.75 9.99976C18.75 5.16772 14.832 1.24976 10 1.24976ZM13.7793 7.14233L9.66602 12.8455C9.60853 12.9257 9.53274 12.9911 9.44493 13.0362C9.35713 13.0813 9.25984 13.1048 9.16113 13.1048C9.06242 13.1048 8.96513 13.0813 8.87733 13.0362C8.78953 12.9911 8.71374 12.9257 8.65625 12.8455L6.2207 9.47046C6.14648 9.36694 6.2207 9.22241 6.34766 9.22241H7.26367C7.46289 9.22241 7.65234 9.31812 7.76953 9.48218L9.16016 11.4119L12.2305 7.15405C12.3477 6.99194 12.5352 6.89429 12.7363 6.89429H13.6523C13.7793 6.89429 13.8535 7.03882 13.7793 7.14233Z" fill="#6A39C0"/>
</svg>