<svg width="96" height="139" viewBox="0 0 96 139" fill="none" xmlns="http://www.w3.org/2000/svg">
<path fill-rule="evenodd" clip-rule="evenodd" d="M19.7907 100.957L50.1607 47.8242C58.62 32.0391 78.7834 0.40679 91.7635 0.15918C93.6356 0.227963 95.2857 3.04005 91.1953 11.7214C85.519 23.7683 76.6368 30.0774 70.6501 32.2454C71.5515 33.5178 72.5914 37.4592 69.8456 40.5956C68.8968 41.6794 67.4611 43.1578 65.7439 44.9262C61.2493 49.5546 54.8266 56.1686 50.1607 62.8872C43.7123 72.1726 40.3841 77.0216 39.864 79.7041C48.0112 70.5219 67.2387 53.9939 78.9706 61.3396C82.4375 64.194 85.9807 73.3694 72.4182 87.2356C65.7964 93.3571 46.3182 105.063 25.3175 105.284C23.696 105.301 22.0451 107.458 21.7274 110.042C21.4097 112.627 20.9282 113.619 17.5835 114.895L12.1621 117.402C11.1054 117.873 9.37792 118.25 10.9216 115.989L18.3186 103.547C16.7106 102.757 13.5221 100.995 13.6323 100.266L14.9188 98.3518C15.7623 98.9343 17.9177 100.271 19.7907 100.957ZM87.6384 5.67331C86.2969 10.4972 80.1147 22.4738 66.1182 31.789L66.8747 34.6023C67.0661 35.2635 67.0193 36.9867 65.3005 38.5904L56.1937 47.7872C59.4488 42.0416 66.9833 29.3539 71.0809 24.5675C72.4564 22.9607 74.1524 20.9195 75.9336 18.7757C80.7849 12.937 86.2692 6.33646 87.6384 5.67331ZM25.946 102.17C35.2875 88.9213 57.3927 62.8387 71.0809 64.5003C72.5013 64.7521 74.7712 66.8228 72.487 73.0917C69.6317 80.9278 56.0216 99.7156 25.946 102.17Z" fill="white"/>
<path d="M0.256348 133.841H95.7435" stroke="white" stroke-width="10"/>
</svg>
