<svg width="29" height="29" viewBox="0 0 29 29" fill="none" xmlns="http://www.w3.org/2000/svg">
<path d="M14.8128 27.063C21.5777 27.063 27.0628 21.5778 27.0628 14.813C27.0628 8.04814 21.5777 2.56299 14.8128 2.56299C8.04797 2.56299 2.56281 8.04814 2.56281 14.813C2.56281 21.5778 8.04797 27.063 14.8128 27.063ZM14.8128 4.64111C20.4292 4.64111 24.9847 9.19658 24.9847 14.813C24.9847 20.4294 20.4292 24.9849 14.8128 24.9849C9.19641 24.9849 4.64094 20.4294 4.64094 14.813C4.64094 9.19658 9.19641 4.64111 14.8128 4.64111Z" fill="black"/>
<path d="M16.1254 10.0005C16.1254 9.65239 15.9871 9.31855 15.741 9.07241C15.4948 8.82627 15.161 8.68799 14.8129 8.68799C14.4648 8.68799 14.131 8.82627 13.8848 9.07241C13.6387 9.31855 13.5004 9.65239 13.5004 10.0005C13.5004 10.3486 13.6387 10.6824 13.8848 10.9286C14.131 11.1747 14.4648 11.313 14.8129 11.313C15.161 11.313 15.4948 11.1747 15.741 10.9286C15.9871 10.6824 16.1254 10.3486 16.1254 10.0005ZM15.4692 13.063H14.1567C14.0363 13.063 13.9379 13.1614 13.9379 13.2817V20.7192C13.9379 20.8396 14.0363 20.938 14.1567 20.938H15.4692C15.5895 20.938 15.6879 20.8396 15.6879 20.7192L15.6879 13.2817C15.6879 13.1614 15.5895 13.063 15.4692 13.063Z" fill="black"/>
</svg>
