<svg width="30" height="30" viewBox="0 0 30 30" fill="none" xmlns="http://www.w3.org/2000/svg">
<path d="M15.6216 14.4229L8.14208 4.86621C8.05418 4.75195 7.91649 4.6875 7.77293 4.6875H5.50829C5.312 4.6875 5.2036 4.91309 5.32372 5.06543L13.0991 15L5.32372 24.9346C5.29667 24.9691 5.27988 25.0106 5.27528 25.0542C5.27068 25.0978 5.27845 25.1419 5.29771 25.1813C5.31696 25.2207 5.34692 25.2539 5.38416 25.2771C5.4214 25.3003 5.46441 25.3126 5.50829 25.3125H7.77293C7.91649 25.3125 8.05418 25.2451 8.14208 25.1338L15.6216 15.5801C15.8882 15.2373 15.8882 14.7627 15.6216 14.4229ZM24.5278 14.4229L17.0483 4.86621C16.9604 4.75195 16.8227 4.6875 16.6792 4.6875H14.4145C14.2182 4.6875 14.1098 4.91309 14.23 5.06543L22.0054 15L14.23 24.9346C14.2029 24.9691 14.1861 25.0106 14.1815 25.0542C14.1769 25.0978 14.1847 25.1419 14.204 25.1813C14.2232 25.2207 14.2532 25.2539 14.2904 25.2771C14.3276 25.3003 14.3707 25.3126 14.4145 25.3125H16.6792C16.8227 25.3125 16.9604 25.2451 17.0483 25.1338L24.5278 15.5801C24.7944 15.2373 24.7944 14.7627 24.5278 14.4229Z" fill="black"/>
</svg>
