<svg width="40" height="39" viewBox="0 0 40 39" fill="none" xmlns="http://www.w3.org/2000/svg">
<path d="M16.3636 18.8056C16.3636 18.1164 16.651 17.4555 17.1624 16.9682C17.6739 16.4809 18.3676 16.2071 19.0909 16.2071C19.8142 16.2071 20.5079 15.9333 21.0194 15.446C21.5308 14.9587 21.8182 14.2978 21.8182 13.6086C21.8182 12.9195 21.5308 12.2585 21.0194 11.7712C20.5079 11.2839 19.8142 11.0101 19.0909 11.0101C16.921 11.0101 14.8399 11.8315 13.3055 13.2934C11.7711 14.7553 10.9091 16.7381 10.9091 18.8056C10.9091 19.4948 11.1964 20.1557 11.7079 20.643C12.2194 21.1303 12.913 21.4041 13.6364 21.4041C14.3597 21.4041 15.0534 21.1303 15.5648 20.643C16.0763 20.1557 16.3636 19.4948 16.3636 18.8056ZM0 19.6718C0 14.6179 2.10714 9.77106 5.85786 6.19745C9.60859 2.62384 14.6957 0.616211 20 0.616211C25.3043 0.616211 30.3914 2.62384 34.1421 6.19745C37.8929 9.77106 40 14.6179 40 19.6718C40 24.7256 37.8929 29.5725 34.1421 33.1461C30.3914 36.7197 25.3043 38.7273 20 38.7273C14.6957 38.7273 9.60859 36.7197 5.85786 33.1461C2.10714 29.5725 0 24.7256 0 19.6718ZM20 5.81318C16.1423 5.81318 12.4426 7.27328 9.71481 9.87227C6.98701 12.4713 5.45455 15.9962 5.45455 19.6718C5.45455 23.3473 6.98701 26.8723 9.71481 29.4713C12.4426 32.0703 16.1423 33.5304 20 33.5304C23.8577 33.5304 27.5574 32.0703 30.2852 29.4713C33.013 26.8723 34.5455 23.3473 34.5455 19.6718C34.5455 15.9962 33.013 12.4713 30.2852 9.87227C27.5574 7.27328 23.8577 5.81318 20 5.81318Z" fill="#CAABFF"/>
</svg>
