<svg width="44" height="41" viewBox="0 0 44 41" fill="none" xmlns="http://www.w3.org/2000/svg">
<path d="M24.5261 4.61697C27.0701 4.61697 29.1337 6.56583 29.1337 8.97089C29.1309 9.41109 29.037 9.86462 28.8522 10.3315C27.6641 11.0253 26.6657 11.974 25.9378 13.1007C25.4792 13.2488 25.0086 13.3241 24.5261 13.3268C23.3154 13.3268 22.2191 12.8866 21.3936 12.1663C20.9279 11.7588 20.5565 11.2645 20.303 10.7145C20.0495 10.1645 19.9192 9.57083 19.9205 8.97089C19.92 8.39881 20.0388 7.83224 20.2702 7.30363C20.5016 6.77502 20.841 6.29475 21.269 5.89032C21.697 5.48589 22.2051 5.16525 22.7644 4.94675C23.3237 4.72825 23.9209 4.61618 24.5261 4.61697ZM32.9307 6.36574C32.4571 5.00357 31.6209 3.77944 30.5024 2.81101C29.3839 1.84259 28.0207 1.16242 26.5438 0.835877C25.067 0.509337 23.5261 0.547403 22.0693 0.946416C20.6125 1.34543 19.2887 2.09198 18.2252 3.11431C17.3639 2.8607 16.4669 2.73251 15.5648 2.73414C14.1263 2.73379 12.7096 3.06535 11.4374 3.70002C10.1652 4.33469 9.07617 5.2533 8.2647 6.37611C7.45323 7.49892 6.9439 8.79199 6.78092 10.1431C6.61794 11.4942 6.80623 12.8625 7.32946 14.1292C5.80849 14.7992 4.52171 15.8661 3.62065 17.2043C2.71959 18.5425 2.24179 20.0962 2.2435 21.6825C2.2435 23.1572 2.64775 24.5438 3.35678 25.7463C2.30967 26.5222 1.46321 27.5134 0.8816 28.6446C0.299991 29.7758 -0.00149603 31.0174 5.58181e-06 32.2752C-0.000272404 33.3726 0.228137 34.4594 0.67219 35.4734C1.11624 36.4874 1.76724 37.4087 2.588 38.1848C3.40876 38.961 4.3832 39.5766 5.45568 39.9966C6.52816 40.4167 7.67766 40.6329 8.83853 40.6329C11.6387 40.6329 14.098 39.3323 15.7066 37.4395C17.0305 38.1457 18.5253 38.5159 20.0454 38.5139C23.5736 38.5139 26.6595 36.5731 28.0797 33.7238C29.4187 34.2103 30.863 34.3814 32.2876 34.2222C33.7122 34.063 35.0745 33.5784 36.2567 32.8102C37.4389 32.042 38.4056 31.0133 39.0732 29.8129C39.7408 28.6125 40.0894 27.2766 40.0887 25.9204C40.0887 25.06 39.9617 24.2076 39.6993 23.3933C40.8093 22.3569 41.6096 21.0612 42.0188 19.6379C42.4281 18.2146 42.4317 16.7143 42.0293 15.2893C41.6269 13.8642 40.8329 12.5652 39.7278 11.524C38.6227 10.4828 37.2459 9.73661 35.7372 9.36107C37.6209 7.68433 39.6231 6.34373 42.019 5.48936L43.0225 5.13157C43.5564 4.94121 43.8255 4.34559 43.6155 3.81911L42.8628 1.93237C42.6635 1.43281 42.1048 1.18036 41.5981 1.36098L40.5247 1.7437C37.5214 2.81618 35.0726 4.47091 32.9265 6.36574M35.8366 25.5042C35.8479 25.6403 35.8536 25.779 35.8536 25.9204C35.8435 26.4963 35.7127 27.0646 35.4687 27.5924C35.2246 28.1201 34.8723 28.5969 34.432 28.995C33.9916 29.3931 33.4722 29.7047 32.9036 29.9117C32.335 30.1186 31.7286 30.2169 31.1196 30.2007C30.5105 30.1846 29.9109 30.0544 29.3555 29.8176C28.8001 29.5808 28.2999 29.2422 27.8839 28.8214C27.4679 28.4006 27.1443 27.9059 26.932 27.366C26.7196 26.8262 26.6227 26.2518 26.6468 25.6763C26.7039 24.8759 26.9833 24.1476 27.432 23.5353C28.5366 24.5169 29.8895 25.2137 31.3608 25.5588C32.8322 25.9039 34.3727 25.8858 35.8345 25.5062M22.6741 23.9055C22.0357 23.958 21.3928 23.8837 20.7866 23.6873C20.1804 23.4909 19.6244 23.1767 19.1544 22.765C18.6872 22.3578 18.3145 21.8633 18.0599 21.313C17.8052 20.7626 17.6741 20.1683 17.6749 19.5676C17.6715 18.8577 17.8549 18.1582 18.2084 17.532C18.562 16.9057 19.0747 16.3724 19.7004 15.98C21.17 16.886 22.8924 17.3563 24.6467 17.3306V17.4486C24.6467 18.341 24.7948 19.2034 25.07 20.0118C23.9027 21.0729 23.0728 22.4217 22.6741 23.9055ZM16.7987 13.0307C15.9352 13.671 15.2029 14.4593 14.6462 15.3597C13.683 15.1756 12.8076 14.7044 12.1487 14.0151C11.5235 13.3644 11.1213 12.5501 10.995 11.6792C10.8686 10.8082 11.0241 9.92158 11.441 9.1358C11.8578 8.35002 12.5165 7.70193 13.3304 7.27679C14.1443 6.85164 15.0752 6.66936 16.0008 6.75391C15.3879 8.86428 15.6743 11.1177 16.7987 13.0307ZM13.4546 19.2074C13.449 19.3275 13.4462 19.4469 13.4462 19.5656C13.4462 21.0422 13.8525 22.4308 14.5637 23.6354C13.7345 24.2433 13.0289 24.9883 12.481 25.8343C12.0394 25.9677 11.5723 26.0358 11.0799 26.0384C9.86926 26.0384 8.77291 25.5982 7.94748 24.8759C7.48201 24.4686 7.11081 23.9746 6.85728 23.425C6.60375 22.8754 6.47338 22.2821 6.47439 21.6825C6.47439 19.6756 7.91361 17.9889 9.88196 17.4927C10.9193 18.3138 12.1412 18.9003 13.4546 19.2074ZM17.4781 26.5787C19.0172 27.5235 20.8302 27.9901 22.6635 27.9133C22.9958 29.1958 23.6414 30.3623 24.5155 31.3348C24.2411 32.254 23.6552 33.0627 22.8477 33.6367C22.0402 34.2107 21.0557 34.5183 20.0454 34.5122C18.712 34.5122 17.5098 33.9779 16.6675 33.1176C15.8768 32.3128 15.4382 31.2546 15.4399 30.1562C15.4399 29.494 15.5944 28.8677 15.8717 28.3094L15.8759 28.2994L15.8844 28.2834C16.2424 27.5891 16.7933 26.9999 17.4781 26.5787ZM11.2069 30.0402V30.1582C11.2069 31.823 11.7212 33.3757 12.6101 34.6802C11.7445 35.8508 10.3349 36.6311 8.83853 36.6311C8.23354 36.6311 7.63449 36.5184 7.07558 36.2995C6.51668 36.0806 6.00888 35.7597 5.58119 35.3552C5.1535 34.9507 4.8143 34.4704 4.58298 33.942C4.35165 33.4135 4.23273 32.8471 4.23301 32.2752C4.23301 30.7825 5.03093 29.4699 6.26486 28.6916C7.73348 29.5962 9.45428 30.0657 11.2069 30.0402ZM33.4916 13.0927C34.1081 13.075 34.7221 13.1746 35.2972 13.3854C35.8723 13.5963 36.3968 13.9142 36.8395 14.3202C37.2823 14.7263 37.6342 15.2122 37.8746 15.7493C38.115 16.2863 38.2388 16.8635 38.2388 17.4466C38.2388 18.0298 38.115 18.607 37.8746 19.144C37.6342 19.6811 37.2823 20.167 36.8395 20.5731C36.3968 20.9791 35.8723 21.297 35.2972 21.5078C34.7221 21.7187 34.1081 21.8182 33.4916 21.8006C32.2869 21.7761 31.1403 21.3066 30.2975 20.4926C29.4547 19.6785 28.9827 18.5847 28.9827 17.4456C28.9827 16.3065 29.4547 15.2128 30.2975 14.3987C31.1403 13.5847 32.2869 13.1151 33.4916 13.0907" fill="#9E67FF"/>
</svg>
