<svg width="25" height="25" viewBox="0 0 25 25" fill="none" xmlns="http://www.w3.org/2000/svg">
<path d="M12.4991 5.95313C16.8003 5.95313 20.2871 9.43994 20.2871 13.7412V19.4297C20.2871 19.6369 20.2048 19.8356 20.0583 19.9821C19.9118 20.1286 19.7131 20.2109 19.5059 20.2109H5.49222C5.28502 20.2109 5.0863 20.1286 4.93979 19.9821C4.79328 19.8356 4.71097 19.6369 4.71097 19.4297V13.7412C4.71097 9.43994 8.19779 5.95313 12.4991 5.95313ZM11.8155 1.65625H13.1826C13.2344 1.65625 13.2841 1.67683 13.3208 1.71346C13.3574 1.75008 13.378 1.79976 13.378 1.85156V4.19531C13.378 4.24711 13.3574 4.29679 13.3208 4.33342C13.2841 4.37005 13.2344 4.39063 13.1826 4.39063H11.8155C11.7637 4.39063 11.714 4.37005 11.6774 4.33342C11.6407 4.29679 11.6201 4.24711 11.6201 4.19531V1.85156C11.6201 1.79976 11.6407 1.75008 11.6774 1.71346C11.714 1.67683 11.7637 1.65625 11.8155 1.65625ZM4.32645 4.67529C4.34459 4.65713 4.36613 4.64273 4.38984 4.6329C4.41355 4.62307 4.43896 4.61801 4.46463 4.61801C4.4903 4.61801 4.51571 4.62307 4.53942 4.6329C4.56313 4.64273 4.58468 4.65713 4.60281 4.67529L6.26004 6.33252C6.29664 6.36914 6.3172 6.4188 6.3172 6.47058C6.3172 6.52236 6.29664 6.57202 6.26004 6.60864L5.29324 7.57544C5.25662 7.61204 5.20696 7.6326 5.15518 7.6326C5.10341 7.6326 5.05375 7.61204 5.01712 7.57544L3.35989 5.91821C3.32329 5.88159 3.30273 5.83193 3.30273 5.78015C3.30273 5.72837 3.32329 5.67871 3.35989 5.64209L4.32669 4.67529H4.32645ZM20.6741 4.67529L21.6409 5.64209C21.6774 5.6787 21.6979 5.72831 21.6979 5.78003C21.6979 5.83175 21.6774 5.88135 21.6409 5.91797L19.9837 7.57568C19.9655 7.59384 19.944 7.60825 19.9203 7.61808C19.8966 7.62791 19.8712 7.63297 19.8455 7.63297C19.8198 7.63297 19.7944 7.62791 19.7707 7.61808C19.747 7.60825 19.7254 7.59384 19.7073 7.57568L18.7405 6.60889C18.7224 6.59075 18.7079 6.56921 18.6981 6.5455C18.6883 6.52179 18.6832 6.49637 18.6832 6.4707C18.6832 6.44504 18.6883 6.41962 18.6981 6.39591C18.7079 6.3722 18.7224 6.35066 18.7405 6.33252L20.398 4.67529C20.4346 4.63869 20.4843 4.61813 20.536 4.61813C20.5878 4.61813 20.6375 4.63869 20.6741 4.67529ZM4.68656 21.7734H20.3116C20.5188 21.7734 20.7175 21.8557 20.864 22.0023C21.0105 22.1488 21.0928 22.3475 21.0928 22.5547V23.1406C21.0928 23.1924 21.0722 23.2421 21.0356 23.2787C20.999 23.3154 20.9493 23.3359 20.8975 23.3359H4.10062C4.04882 23.3359 3.99914 23.3154 3.96251 23.2787C3.92588 23.2421 3.9053 23.1924 3.9053 23.1406V22.5547C3.9053 22.3475 3.98762 22.1488 4.13413 22.0023C4.28064 21.8557 4.47935 21.7734 4.68656 21.7734ZM8.29984 14.0342V20.2109H9.86234V14.0342H8.29984Z" fill="#FF5900"/>
</svg>
