<svg xmlns="http://www.w3.org/2000/svg" width="9" height="18" viewBox="0 0 9 18" fill="none">
  <path d="M0.212554 8.43925L7.84997 0.213914C7.9774 0.0766005 8.14671 0 8.32277 0C8.49883 0 8.66813 0.0766005 8.79556 0.213914L8.80379 0.223208C8.86578 0.289775 8.91514 0.3699 8.94887 0.458711C8.9826 0.547521 9 0.64316 9 0.739808C9 0.836457 8.9826 0.932096 8.94887 1.02091C8.91514 1.10972 8.86578 1.18984 8.80379 1.25641L1.61176 9.00155L8.80379 16.7436C8.86578 16.8102 8.91514 16.8903 8.94887 16.9791C8.9826 17.0679 9 17.1635 9 17.2602C9 17.3568 8.9826 17.4525 8.94887 17.5413C8.91514 17.6301 8.86578 17.7102 8.80379 17.7768L8.79556 17.7861C8.66813 17.9234 8.49883 18 8.32277 18C8.14671 18 7.9774 17.9234 7.84997 17.7861L0.212554 9.56075C0.145386 9.48841 0.0919133 9.40141 0.0553766 9.30502C0.0188398 9.20863 0 9.10486 0 9C0 8.89513 0.0188398 8.79136 0.0553766 8.69497C0.0919133 8.59858 0.145386 8.51159 0.212554 8.43925Z" fill="black"/>
</svg>