<svg xmlns="http://www.w3.org/2000/svg" width="10" height="18" viewBox="0 0 10 18" fill="none">
  <path d="M9.37288 9.56075L1.22631 17.7861C1.09038 17.9234 0.909788 18 0.721991 18C0.534193 18 0.353602 17.9234 0.217672 17.7861L0.208901 17.7768C0.142777 17.7102 0.0901232 17.6301 0.054143 17.5413C0.0181627 17.4525 -0.000391006 17.3568 -0.000391006 17.2602C-0.000391006 17.1635 0.0181627 17.0679 0.054143 16.9791C0.0901232 16.8903 0.142777 16.8102 0.208901 16.7436L7.88039 8.99845L0.208901 1.25641C0.142777 1.18984 0.0901232 1.10972 0.054143 1.02091C0.0181627 0.932096 -0.000391006 0.83646 -0.000391006 0.739811C-0.000391006 0.643162 0.0181627 0.547522 0.054143 0.458712C0.0901232 0.369902 0.142777 0.289778 0.208901 0.223211L0.217672 0.213915C0.353602 0.076601 0.534193 0 0.721991 0C0.909788 0 1.09038 0.076601 1.22631 0.213915L9.37288 8.43925C9.44453 8.51159 9.50157 8.59859 9.54054 8.69498C9.57951 8.79137 9.59961 8.89514 9.59961 9C9.59961 9.10486 9.57951 9.20864 9.54054 9.30503C9.50157 9.40141 9.44453 9.48841 9.37288 9.56075Z" fill="#BABABA"/>
</svg>