<svg width="19" height="20" viewBox="0 0 19 20" fill="none" xmlns="http://www.w3.org/2000/svg">
<path d="M1 9.25219C1 5.7386 1 3.98134 2.08191 2.89028C3.16289 1.79828 4.90392 1.79828 8.38504 1.79828H10.2313C13.7124 1.79828 15.4534 1.79828 16.5344 2.89028C17.6163 3.98134 17.6163 5.7386 17.6163 9.25219V11.1157C17.6163 14.6293 17.6163 16.3865 16.5344 17.4776C15.4534 18.5696 13.7124 18.5696 10.2313 18.5696H8.38504C4.90392 18.5696 3.16289 18.5696 2.08191 17.4776C1 16.3865 1 14.6293 1 11.1157V9.25219Z" stroke="black" stroke-width="2"/>
<path d="M13.4623 7.38836C14.2271 7.38836 14.847 6.76263 14.847 5.99075C14.847 5.21887 14.2271 4.59314 13.4623 4.59314C12.6976 4.59314 12.0776 5.21887 12.0776 5.99075C12.0776 6.76263 12.6976 7.38836 13.4623 7.38836Z" fill="black"/>
<path d="M9.30821 12.9786C10.8377 12.9786 12.0776 11.7271 12.0776 10.1833C12.0776 8.63958 10.8377 7.38812 9.30821 7.38812C7.77872 7.38812 6.53882 8.63958 6.53882 10.1833C6.53882 11.7271 7.77872 12.9786 9.30821 12.9786Z" stroke="black" stroke-width="2"/>
</svg>
