<svg xmlns="http://www.w3.org/2000/svg" width="154" height="52" viewBox="0 0 154 52" fill="none">
  <path d="M47.1193 34.9652V31.6055H57.6813V25.9188H48.8025V22.559H52.4439V15.0282H48.8025V11.6685H70.3155V15.0282H66.6741V22.559H70.3155V25.9188H61.4367V31.6055H71.9987V34.9652H47.126H47.1193ZM56.1926 22.559H62.912V15.0282H56.1926V22.559Z" fill="#8C8DC4"/>
  <path d="M76.8069 22.4185V14.5456C76.8069 14.17 76.8806 13.8146 77.0349 13.4659C77.1824 13.1239 77.3903 12.8154 77.6384 12.5405C77.8932 12.2722 78.195 12.0576 78.5571 11.8967C78.9126 11.7357 79.3015 11.6553 79.7173 11.6553H98.407V15.015H81.0384C80.8305 15.015 80.7031 15.0619 80.6494 15.1558C80.5958 15.2497 80.5622 15.3704 80.5622 15.5179V21.4528C80.5622 21.6204 80.5891 21.7479 80.6427 21.8283C80.6964 21.9155 80.8305 21.9557 81.0317 21.9557H98.3735V25.3155H89.441V31.0022H99.5537V34.3619H75.5797V31.0022H85.6924V25.3155H79.6972C79.2881 25.3155 78.9058 25.2417 78.5504 25.0942C78.195 24.9466 77.8932 24.732 77.6384 24.4638C77.3836 24.1956 77.1824 23.8804 77.0349 23.5249C76.8873 23.1695 76.8136 22.794 76.8136 22.405L76.8069 22.4185Z" fill="#8C8DC4"/>
  <path d="M121.254 23.7597V11.662H125.01V16.1416H128.96V19.5013H125.01V24.3163H122.126C122.931 24.9533 123.561 25.7312 124.031 26.6567C124.5 27.5821 124.728 28.6282 124.728 29.8085C124.728 30.8748 124.534 31.8605 124.138 32.7793C123.742 33.698 123.186 34.4893 122.455 35.1599C121.71 35.8305 120.852 36.3469 119.893 36.7023C118.934 37.0577 117.861 37.2321 116.688 37.2321C115.514 37.2321 114.434 37.051 113.469 36.7023C112.496 36.3469 111.638 35.8372 110.894 35.1599C110.183 34.4893 109.633 33.6913 109.244 32.7793C108.855 31.8673 108.654 30.8748 108.654 29.8085C108.654 27.8839 109.271 26.2878 110.505 25.0204C111.081 24.3833 111.779 23.8737 112.59 23.4914C113.402 23.1092 114.314 22.8409 115.32 22.6934C114.367 22.3179 113.516 21.8082 112.771 21.151C112.027 20.5005 111.43 19.6354 110.981 18.5759C110.176 20.239 109.076 21.4528 107.675 22.2173C106.253 22.9482 104.65 23.4244 102.86 23.6457V20.1451C103.758 20.0177 104.57 19.7763 105.307 19.4276C106.045 19.0856 106.696 18.5759 107.252 17.8986C107.816 17.2816 108.258 16.497 108.58 15.5448C108.909 14.5925 109.07 13.419 109.07 12.0174V11.6553H112.825V12.0174C112.825 13.419 112.986 14.5925 113.301 15.5448C113.616 16.497 114.059 17.2816 114.615 17.8986C115.179 18.5692 115.829 19.0788 116.574 19.4276C117.318 19.7763 118.143 20.011 119.041 20.1451V22.8879C119.43 23.0019 119.819 23.1293 120.202 23.2634C120.584 23.4042 120.933 23.5652 121.254 23.753V23.7597ZM116.694 25.6374C115.407 25.6374 114.381 26.0196 113.63 26.7841C112.879 27.5486 112.496 28.5612 112.496 29.8085C112.496 31.0558 112.872 32.1154 113.63 32.8597C114.387 33.6041 115.407 33.9797 116.694 33.9797C117.982 33.9797 118.961 33.6041 119.732 32.8597C120.51 32.1154 120.892 31.0961 120.892 29.8085C120.892 28.5209 120.503 27.5486 119.732 26.7841C118.954 26.0196 117.942 25.6374 116.694 25.6374Z" fill="#8C8DC4"/>
  <path d="M131.535 15.0218V11.6621H145.43V15.0218H140.447C140.876 18.4553 142.667 20.3531 145.825 20.7086V24.0683C144.947 24.0482 144.115 23.9207 143.331 23.6927C142.546 23.458 141.835 23.1495 141.205 22.7539C140.568 22.3649 140.018 21.9022 139.555 21.3792C139.086 20.8561 138.73 20.2995 138.489 19.6959C138.227 20.2928 137.865 20.8561 137.396 21.3792C136.927 21.9022 136.377 22.3582 135.746 22.7539C135.109 23.1428 134.405 23.458 133.634 23.6927C132.856 23.9274 132.031 24.0549 131.153 24.0683V20.7086C132.668 20.5208 133.889 19.9508 134.821 18.9985C135.753 18.0463 136.323 16.7185 136.531 15.0218H131.548H131.535ZM133.245 32.9739V25.6643H151.982C152.632 25.6643 153.135 25.8588 153.477 26.241C153.819 26.6233 153.993 27.0927 153.993 27.656V35.9447H136.182C135.23 35.9447 134.499 35.663 133.996 35.093C133.493 34.523 133.238 33.8188 133.238 32.9806L133.245 32.9739ZM150.245 29.0307H136.994V32.5849H150.245V29.0307ZM145.651 19.535V16.1753H150.245V11.6688H154V24.3298H150.245V19.5417H145.651V19.535Z" fill="#8C8DC4"/>
  <path d="M19.7472 39.5454C20.0515 40.8086 19.8505 42.1176 19.1673 43.2258C18.4898 44.3396 17.4219 45.1147 16.153 45.4248L15.2171 45.6487L13.0468 46.1712C13.0468 46.1712 13.0181 46.1769 13.0009 46.1827C12.5703 46.2745 12.1396 46.3377 11.709 46.3721C11.399 46.4008 11.0889 46.4181 10.7789 46.4181C9.98082 46.4181 9.18849 46.3262 8.39616 46.1482C2.66036 44.8391 -0.945325 39.1033 0.363746 33.3675C0.805844 31.4212 1.77042 29.67 3.14265 28.2691C1.7532 26.8911 0.765653 25.1514 0.300588 23.2108C-1.08312 17.4922 2.44218 11.7105 8.16649 10.3268C12.9664 9.16698 17.8123 11.4693 20.063 15.6262C20.6716 16.7458 19.8677 18.1123 18.5931 18.1123C17.9673 18.1123 17.4046 17.7506 17.1061 17.1994C15.5559 14.3631 12.243 12.7956 8.95883 13.588C5.03162 14.5353 2.61443 18.5027 3.56179 22.4299C4.00388 24.2615 5.11774 25.8347 6.69666 26.8566C7.16747 27.1609 7.45454 27.6892 7.46029 28.2518C7.46029 28.7973 7.20192 29.3025 6.76556 29.6183C6.00768 30.1638 5.26702 30.7551 4.75028 31.536C1.71301 36.1637 4.33689 41.7904 9.1483 42.887C9.6191 42.9961 10.0956 43.0535 10.5722 43.0708C11.1464 43.088 11.7148 43.0363 12.2832 42.9215L13.8908 42.531L15.2975 42.1923C16.0381 42.0143 16.5893 41.3368 16.5262 40.5789C16.4975 40.2516 16.3769 39.9531 16.1759 39.7177C16.0267 39.5397 15.8372 39.3962 15.619 39.2986L16.2908 37.7656L16.9625 36.2326C18.3692 36.8469 19.3855 38.0584 19.7414 39.5512L19.7472 39.5454Z" fill="url(#paint0_linear_2361_2613)"/>
  <path d="M16.9625 36.2328L16.2907 37.7658L15.619 39.2988C15.4065 39.2069 15.0678 39.1151 14.6544 39.2127C14.2582 39.3103 13.9252 39.5514 13.7128 39.9017C13.5003 40.2519 13.4372 40.6595 13.5348 41.0557L13.8908 42.5313L12.2831 42.9217C11.7147 43.0423 11.1463 43.0882 10.5722 43.071L10.2736 41.8423C9.9693 40.5734 10.1703 39.2701 10.8535 38.1562C11.531 37.0481 12.5989 36.2673 13.8678 35.963C14.9128 35.7103 15.9807 35.8022 16.9625 36.2328Z" fill="url(#paint1_linear_2361_2613)"/>
  <path d="M38.9642 32.1792C38.6254 36.9561 34.9393 40.7111 30.3748 41.3197C30.5298 45.9244 27.4352 50.1732 22.7845 51.3042C22.0037 51.4937 21.2171 51.5856 20.4305 51.5856C18.6276 51.5856 16.8535 51.0918 15.2746 50.1272C13.7531 49.2028 12.5416 47.911 11.7206 46.3837C12.1512 46.3493 12.5818 46.2861 13.0124 46.1943C13.0296 46.1943 13.0411 46.1885 13.0583 46.1828L15.2286 45.6603C15.7167 46.2919 16.3195 46.8431 17.0257 47.2737C18.5243 48.1866 20.2927 48.4679 22.0037 48.0545C25.529 47.199 27.705 43.6393 26.8553 40.1082C26.6888 39.4193 26.9701 38.6786 27.6131 38.2767C27.9289 38.0815 28.3136 38.0241 28.6868 38.047C32.2753 38.2537 35.3814 35.538 35.6341 31.9438C35.7202 30.7668 35.4905 29.6127 34.9795 28.5792C34.7384 28.0855 34.7212 27.5056 34.9968 27.029C35.0025 27.0175 35.0082 27.0061 35.014 26.9946C35.657 25.8578 37.3106 25.8577 37.902 27.0233C38.568 28.3381 39.1249 30.1007 38.9756 32.1792H38.9642Z" fill="url(#paint2_linear_2361_2613)"/>
  <path d="M31.3623 1.0544C32.0627 1.75486 32.0053 2.90317 31.2417 3.53474C29.3183 5.13663 27.1365 6.33661 24.794 7.10023C23.7088 7.45621 22.5892 7.70883 21.4466 7.8696C20.5395 7.99591 19.6151 8.06482 18.6792 8.06482C14.0401 8.06482 9.64778 6.47441 6.12822 3.54622C5.36459 2.90891 5.28995 1.7606 5.99616 1.0544C6.61624 0.434309 7.59805 0.411343 8.27555 0.974014C11.198 3.39694 14.8381 4.7175 18.685 4.7175C22.5318 4.7175 26.1662 3.39694 29.0944 0.974014C29.7719 0.417085 30.7537 0.434309 31.3738 1.0544H31.3623Z" fill="url(#paint3_linear_2361_2613)"/>
  <path d="M14.4592 20.2773C15.3032 20.2773 15.9922 20.8916 16.1645 21.7184C16.4515 23.1194 17.1578 24.3997 18.2199 25.416C19.552 26.6906 21.2802 27.3796 23.1175 27.3796C23.2323 27.3796 23.3414 27.3796 23.4562 27.3738C26.2351 27.2475 28.6293 25.4676 29.6686 23.016C29.858 22.5624 30.0073 22.0916 30.0992 21.5978C30.1566 21.2763 30.1968 20.9548 30.214 20.6218C30.3748 17.1309 27.9231 13.9903 24.5127 13.3128C22.7328 12.9568 21.4467 11.4009 21.4467 9.60952V7.86409C22.5892 7.70333 23.7088 7.44496 24.794 7.09473V9.60952C24.794 9.81048 24.9433 9.98272 25.1615 10.0287C30.2657 11.0449 33.7967 15.5635 33.5556 20.7768C33.5269 21.3682 33.4465 21.9423 33.3259 22.4993C33.079 23.6131 32.6542 24.6638 32.08 25.6227C30.3231 28.5394 27.1825 30.5604 23.6055 30.7211C20.7749 30.8532 18.0821 29.8657 16.0152 27.948V33.5632H12.6679V22.0055C12.6679 21.0467 13.443 20.2715 14.4018 20.2773H14.4592Z" fill="#8C8DC4"/>
  <defs>
    <linearGradient id="paint0_linear_2361_2613" x1="6.7713" y1="18.141" x2="12.886" y2="33.8728" gradientUnits="userSpaceOnUse">
      <stop offset="0.36" stop-color="#8C8DC4"/>
      <stop offset="0.92" stop-color="#D3A9C9"/>
    </linearGradient>
    <linearGradient id="paint1_linear_2361_2613" x1="13.6611" y1="46.5905" x2="13.5463" y2="37.9668" gradientUnits="userSpaceOnUse">
      <stop offset="0.17" stop-color="#8C8DC4"/>
      <stop offset="0.82" stop-color="#D3A9C9"/>
    </linearGradient>
    <linearGradient id="paint2_linear_2361_2613" x1="19.0295" y1="39.1838" x2="31.6322" y2="38.759" gradientUnits="userSpaceOnUse">
      <stop stop-color="#8C8DC4"/>
      <stop offset="1" stop-color="#D3A9C9"/>
    </linearGradient>
    <linearGradient id="paint3_linear_2361_2613" x1="5.50239" y1="4.31559" x2="31.8503" y2="4.31559" gradientUnits="userSpaceOnUse">
      <stop stop-color="#8C8DC4"/>
      <stop offset="1" stop-color="#D3A9C9"/>
    </linearGradient>
  </defs>
</svg>