<svg width="19" height="20" viewBox="0 0 19 20" fill="none" xmlns="http://www.w3.org/2000/svg">
<g clip-path="url(#clip0_1100_1339)">
<path d="M8.49814 8.05956C8.47015 8.0442 8.43826 8.03598 8.40572 8.03571C8.37317 8.03545 8.34114 8.04316 8.31286 8.05806C8.28458 8.07296 8.26107 8.09452 8.24471 8.12055C8.22835 8.14658 8.21973 8.17615 8.21973 8.20626V12.1564C8.21973 12.1865 8.22835 12.216 8.24471 12.2421C8.26107 12.2681 8.28458 12.2897 8.31286 12.3046C8.34114 12.3195 8.37317 12.3272 8.40572 12.3269C8.43826 12.3266 8.47015 12.3184 8.49814 12.3031L12.1006 10.328C12.1282 10.3129 12.1509 10.2914 12.1668 10.2657C12.1826 10.24 12.1909 10.2109 12.1909 10.1813C12.1909 10.1517 12.1826 10.1226 12.1668 10.0969C12.1509 10.0712 12.1282 10.0497 12.1006 10.0346L8.49814 8.05956Z" fill="black" stroke="black" stroke-width="1.5" stroke-linecap="round" stroke-linejoin="round"/>
</g>
<path d="M1.06763 9.25219C1.06763 5.7386 1.06763 3.98134 2.14954 2.89028C3.23052 1.79828 4.97154 1.79828 8.45267 1.79828H10.2989C13.78 1.79828 15.5211 1.79828 16.6021 2.89028C17.684 3.98134 17.684 5.7386 17.684 9.25219V11.1157C17.684 14.6293 17.684 16.3865 16.6021 17.4776C15.5211 18.5696 13.78 18.5696 10.2989 18.5696H8.45267C4.97154 18.5696 3.23052 18.5696 2.14954 17.4776C1.06763 16.3865 1.06763 14.6293 1.06763 11.1157V9.25219Z" stroke="black" stroke-width="2"/>
<defs>
<clipPath id="clip0_1100_1339">
<rect width="7.37524" height="6.82328" fill="white" transform="translate(6.37598 6.76965)"/>
</clipPath>
</defs>
</svg>
